<svg xmlns="http://www.w3.org/2000/svg" version="1.1" xmlns:xlink="http://www.w3.org/1999/xlink" xmlns:svgjs="http://svgjs.dev/svgjs" width="1200" height="320" preserveAspectRatio="none" viewBox="0 0 1200 320">
    <g mask="url(&quot;#SvgjsMask1279&quot;)" fill="none">
        <rect width="1200" height="320" x="0" y="0" fill="url(&quot;#SvgjsLinearGradient1280&quot;)"></rect>
        <polygon points="143.29818617765503,265.8450945726066 147.29818617765503,271.8450945726066 153.29818617765503,271.8450945726066 149.29818617765503,277.8450945726066 151.29818617765503,283.8450945726066 143.29818617765503,280.8450945726066 135.29818617765503,283.8450945726066 137.29818617765503,277.8450945726066 133.29818617765503,271.8450945726066 139.29818617765503,271.8450945726066" fill="#fef9c3" class="triangle-float2"></polygon>
        <polygon points="159.55602297327582,38.933408148625404 163.55602297327582,44.933408148625404 169.55602297327582,44.933408148625404 165.55602297327582,50.933408148625404 167.55602297327582,56.933408148625404 159.55602297327582,53.933408148625404 151.55602297327582,56.933408148625404 153.55602297327582,50.933408148625404 149.55602297327582,44.933408148625404 155.55602297327582,44.933408148625404" fill="#fef9c3" class="triangle-float1"></polygon>
        <polygon points="921.9556330615343,120.06709389585203 925.9556330615343,126.06709389585203 931.9556330615343,126.06709389585203 927.9556330615343,132.06709389585203 929.9556330615343,138.06709389585203 921.9556330615343,135.06709389585203 913.9556330615343,138.06709389585203 915.9556330615343,132.06709389585203 911.9556330615343,126.06709389585203 917.9556330615343,126.06709389585203" fill="#fef9c3" class="triangle-float2"></polygon>
        <polygon points="283.8084617145915,207.38730523696833 287.8084617145915,213.38730523696833 293.8084617145915,213.38730523696833 289.8084617145915,219.38730523696833 291.8084617145915,225.38730523696833 283.8084617145915,222.38730523696833 275.8084617145915,225.38730523696833 277.8084617145915,219.38730523696833 273.8084617145915,213.38730523696833 279.8084617145915,213.38730523696833" fill="#fef9c3" class="triangle-float1"></polygon>
        <polygon points="731.092283820749,188.23630987378024 735.092283820749,194.23630987378024 741.092283820749,194.23630987378024 737.092283820749,200.23630987378024 739.092283820749,206.23630987378024 731.092283820749,203.23630987378024 723.092283820749,206.23630987378024 725.092283820749,200.23630987378024 721.092283820749,194.23630987378024 727.092283820749,194.23630987378024" fill="#fef9c3" class="triangle-float1"></polygon>
        <polygon points="253.60747687969965,247.29671631946636 257.60747687969965,253.29671631946636 263.60747687969965,253.29671631946636 259.60747687969965,259.29671631946636 261.60747687969965,265.29671631946636 253.60747687969965,262.29671631946636 245.60747687969965,265.29671631946636 247.60747687969965,259.29671631946636 243.60747687969965,253.29671631946636 249.60747687969965,253.29671631946636" fill="#fef9c3" class="triangle-float2"></polygon>
        <polygon points="508.6437591720295,264.3005182194951 512.6437591720295,270.3005182194951 518.6437591720295,270.3005182194951 514.6437591720295,276.3005182194951 516.6437591720295,282.3005182194951 508.6437591720295,279.3005182194951 500.6437591720295,282.3005182194951 502.6437591720295,276.3005182194951 498.6437591720295,270.3005182194951 504.6437591720295,270.3005182194951" fill="#fef9c3" class="triangle-float2"></polygon>
        <polygon points="324.06492179374976,76.00304785170431 328.06492179374976,82.00304785170431 334.06492179374976,82.00304785170431 330.06492179374976,88.00304785170431 332.06492179374976,94.00304785170431 324.06492179374976,91.00304785170431 316.06492179374976,94.00304785170431 318.06492179374976,88.00304785170431 314.06492179374976,82.00304785170431 320.06492179374976,82.00304785170431" fill="#fef9c3" class="triangle-float2"></polygon>
        <polygon points="1063.1503736361608,274.99779699331543 1067.1503736361608,280.99779699331543 1073.1503736361608,280.99779699331543 1069.1503736361608,286.99779699331543 1071.1503736361608,292.99779699331543 1063.1503736361608,289.99779699331543 1055.1503736361608,292.99779699331543 1057.1503736361608,286.99779699331543 1053.1503736361608,280.99779699331543 1059.1503736361608,280.99779699331543" fill="#fef9c3" class="triangle-float3"></polygon>
        <polygon points="838.6579648862214,18.529693871419482 842.6579648862214,24.529693871419482 848.6579648862214,24.529693871419482 844.6579648862214,30.529693871419482 846.6579648862214,36.529693871419482 838.6579648862214,33.529693871419482 830.6579648862214,36.529693871419482 832.6579648862214,30.529693871419482 828.6579648862214,24.529693871419482 834.6579648862214,24.529693871419482" fill="#fef9c3" class="triangle-float2"></polygon>
        <polygon points="984.5727617322617,277.6882235356235 988.5727617322617,283.6882235356235 994.5727617322617,283.6882235356235 990.5727617322617,289.6882235356235 992.5727617322617,295.6882235356235 984.5727617322617,292.6882235356235 976.5727617322617,295.6882235356235 978.5727617322617,289.6882235356235 974.5727617322617,283.6882235356235 980.5727617322617,283.6882235356235" fill="#fef9c3" class="triangle-float3"></polygon>
        <polygon points="620.2969358297015,61.176216463067895 624.2969358297015,67.176216463067895 630.2969358297015,67.176216463067895 626.2969358297015,73.176216463067895 628.2969358297015,79.176216463067895 620.2969358297015,76.176216463067895 612.2969358297015,79.176216463067895 614.2969358297015,73.176216463067895 610.2969358297015,67.176216463067895 616.2969358297015,67.176216463067895" fill="#fef9c3" class="triangle-float3"></polygon>
        <polygon points="949.8652923904324,233.88431472139692 953.8652923904324,239.88431472139692 959.8652923904324,239.88431472139692 955.8652923904324,245.88431472139692 957.8652923904324,251.88431472139692 949.8652923904324,248.88431472139692 941.8652923904324,251.88431472139692 943.8652923904324,245.88431472139692 939.8652923904324,239.88431472139692 945.8652923904324,239.88431472139692" fill="#fef9c3" class="triangle-float1"></polygon>
        <polygon points="867.9647019678945,-7.410648835893291 871.9647019678945,-1.410648835893291 877.9647019678945,-1.410648835893291 873.9647019678945,4.589351164106709 875.9647019678945,10.589351164106709 867.9647019678945,7.589351164106709 859.9647019678945,10.589351164106709 861.9647019678945,4.589351164106709 857.9647019678945,-1.410648835893291 863.9647019678945,-1.410648835893291" fill="#fef9c3" class="triangle-float2"></polygon>
        <polygon points="734.8141733322357,276.77993880426743 738.8141733322357,282.77993880426743 744.8141733322357,282.77993880426743 740.8141733322357,288.77993880426743 742.8141733322357,294.77993880426743 734.8141733322357,291.77993880426743 726.8141733322357,294.77993880426743 728.8141733322357,288.77993880426743 724.8141733322357,282.77993880426743 730.8141733322357,282.77993880426743" fill="#fef9c3" class="triangle-float1"></polygon>
        <polygon points="1154.6047264024758,167.63127559895668 1158.6047264024758,173.63127559895668 1164.6047264024758,173.63127559895668 1160.6047264024758,179.63127559895668 1162.6047264024758,185.63127559895668 1154.6047264024758,182.63127559895668 1146.6047264024758,185.63127559895668 1148.6047264024758,179.63127559895668 1144.6047264024758,173.63127559895668 1150.6047264024758,173.63127559895668" fill="#fef9c3" class="triangle-float3"></polygon>
        <polygon points="811.7283915199391,331.5037885809468 817.7283915199391,337.5037885809468 823.7283915199391,337.5037885809468 819.7283915199391,343.5037885809468 821.7283915199391,349.5037885809468 813.7283915199391,346.5037885809468 805.7283915199391,349.5037885809468 807.7283915199391,343.5037885809468 803.7283915199391,337.5037885809468 809.7283915199391,337.5037885809468" fill="#fef9c3" class="triangle-float1"></polygon>
        <polygon points="679.3257815041033,74.0144796278797 685.3257815041033,80.0144796278797 691.3257815041033,80.0144796278797 687.3257815041033,86.0144796278797 689.3257815041033,92.0144796278797 681.3257815041033,89.0144796278797 673.3257815041033,92.0144796278797 675.3257815041033,86.0144796278797 671.3257815041033,80.0144796278797 677.3257815041033,80.0144796278797" fill="#fef9c3" class="triangle-float2"></polygon>
        <polygon points="546.4201866223785,226.7792688184551 552.4201866223785,232.7792688184551 558.4201866223785,232.7792688184551 554.4201866223785,238.7792688184551 556.4201866223785,244.7792688184551 548.4201866223785,241.7792688184551 540.4201866223785,244.7792688184551 542.4201866223785,238.7792688184551 538.4201866223785,232.7792688184551 544.4201866223785,232.7792688184551" fill="#fef9c3" class="triangle-float3"></polygon>
        <polygon points="1101.8086367964657,50.8055821272195 1107.8086367964657,56.8055821272195 1113.8086367964657,56.8055821272195 1109.8086367964657,62.8055821272195 1111.8086367964657,68.8055821272195 1103.8086367964657,65.8055821272195 1095.8086367964657,68.8055821272195 1097.8086367964657,62.8055821272195 1093.8086367964657,56.8055821272195 1099.8086367964657,56.8055821272195" fill="#fef9c3" class="triangle-float1"></polygon>
        <polygon points="428.9109031287987,134.48973431908765 434.9109031287987,140.48973431908765 440.9109031287987,140.48973431908765 436.9109031287987,146.48973431908765 438.9109031287987,152.48973431908765 430.9109031287987,149.48973431908765 422.9109031287987,152.48973431908765 424.9109031287987,146.48973431908765 420.9109031287987,140.48973431908765 426.9109031287987,140.48973431908765" fill="#fef9c3" class="triangle-float2"></polygon>
    </g>
    <defs>
        <mask id="SvgjsMask1279">
            <rect width="1200" height="320" fill="#ffffff"></rect>
        </mask>
        <linearGradient x1="0%" y1="50%" x2="100%" y2="50%" gradientUnits="userSpaceOnUse" id="SvgjsLinearGradient1280">
            <stop stop-color="rgba(236, 253, 245, 1)" offset="0"></stop>
            <stop stop-color="rgba(56, 117, 104, 1)" offset="1"></stop>
        </linearGradient>
        <style>
            @keyframes float1 {
                    0%{transform: translate(0, 0)}
                    50%{transform: translate(-10px, 0)}
                    100%{transform: translate(0, 0)}
                }

                .triangle-float1 {
                    animation: float1 5s infinite;
                }

                @keyframes float2 {
                    0%{transform: translate(0, 0)}
                    50%{transform: translate(-5px, -5px)}
                    100%{transform: translate(0, 0)}
                }

                .triangle-float2 {
                    animation: float2 4s infinite;
                }

                @keyframes float3 {
                    0%{transform: translate(0, 0)}
                    50%{transform: translate(0, -10px)}
                    100%{transform: translate(0, 0)}
                }

                .triangle-float3 {
                    animation: float3 6s infinite;
                }
        </style>
    </defs>
</svg>
