<svg xmlns="http://www.w3.org/2000/svg" version="1.1" xmlns:xlink="http://www.w3.org/1999/xlink" xmlns:svgjs="http://svgjs.dev/svgjs" width="1200" height="320" preserveAspectRatio="none" viewBox="0 0 1200 320">
    <g mask="url(&quot;#SvgjsMask1055&quot;)" fill="none">
        <rect width="1200" height="320" x="0" y="0" fill="url(&quot;#SvgjsLinearGradient1056&quot;)"></rect>
        <path d="M-90.06 246.99L-90.06 246.99" stroke="rgba(205, 250, 231, 1)" stroke-width="1.5"></path>
        <path d="M-90.06 246.99L-48.67 355.74" stroke="rgba(205, 250, 231, 1)" stroke-width="1.5"></path>
        <path d="M-90.06 246.99L59.12 213.52" stroke="rgba(205, 250, 231, 1)" stroke-width="1.5"></path>
        <path d="M-48.67 355.74L-48.67 355.74" stroke="rgba(205, 250, 231, 1)" stroke-width="1.5"></path>
        <path d="M-48.67 355.74L69.89 378.68" stroke="rgba(205, 250, 231, 1)" stroke-width="1.5"></path>
        <path d="M59.12 213.52L59.12 213.52" stroke="rgba(205, 250, 231, 1)" stroke-width="1.5"></path>
        <path d="M59.12 213.52L69.89 378.68" stroke="rgba(205, 250, 231, 1)" stroke-width="1.5"></path>
        <path d="M69.89 378.68L69.89 378.68" stroke="rgba(205, 250, 231, 1)" stroke-width="1.5"></path>
        <path d="M69.89 378.68L75.82 515.16" stroke="rgba(205, 250, 231, 1)" stroke-width="1.5"></path>
        <path d="M69.89 378.68L235.11 365.97" stroke="rgba(205, 250, 231, 1)" stroke-width="1.5"></path>
        <path d="M69.89 378.68L227.01 256.17" stroke="rgba(205, 250, 231, 1)" stroke-width="1.5"></path>
        <path d="M69.89 378.68L-90.06 246.99" stroke="rgba(205, 250, 231, 1)" stroke-width="1.5"></path>
        <path d="M75.82 515.16L75.82 515.16" stroke="rgba(205, 250, 231, 1)" stroke-width="1.5"></path>
        <path d="M227.01 256.17L227.01 256.17" stroke="rgba(205, 250, 231, 1)" stroke-width="1.5"></path>
        <path d="M227.01 256.17L235.11 365.97" stroke="rgba(205, 250, 231, 1)" stroke-width="1.5"></path>
        <path d="M227.01 256.17L379.15 254.1" stroke="rgba(205, 250, 231, 1)" stroke-width="1.5"></path>
        <path d="M227.01 256.17L59.12 213.52" stroke="rgba(205, 250, 231, 1)" stroke-width="1.5"></path>
        <path d="M227.01 256.17L405.69 363.39" stroke="rgba(205, 250, 231, 1)" stroke-width="1.5"></path>
        <path d="M235.11 365.97L235.11 365.97" stroke="rgba(205, 250, 231, 1)" stroke-width="1.5"></path>
        <path d="M230.69 556.01L230.69 556.01" stroke="rgba(205, 250, 231, 1)" stroke-width="1.5"></path>
        <path d="M230.69 556.01L343.97 502.82" stroke="rgba(205, 250, 231, 1)" stroke-width="1.5"></path>
        <path d="M230.69 556.01L75.82 515.16" stroke="rgba(205, 250, 231, 1)" stroke-width="1.5"></path>
        <path d="M230.69 556.01L235.11 365.97" stroke="rgba(205, 250, 231, 1)" stroke-width="1.5"></path>
        <path d="M230.69 556.01L69.89 378.68" stroke="rgba(205, 250, 231, 1)" stroke-width="1.5"></path>
        <path d="M230.69 556.01L405.69 363.39" stroke="rgba(205, 250, 231, 1)" stroke-width="1.5"></path>
        <path d="M230.69 556.01L227.01 256.17" stroke="rgba(205, 250, 231, 1)" stroke-width="1.5"></path>
        <path d="M379.15 254.1L379.15 254.1" stroke="rgba(205, 250, 231, 1)" stroke-width="1.5"></path>
        <path d="M379.15 254.1L405.69 363.39" stroke="rgba(205, 250, 231, 1)" stroke-width="1.5"></path>
        <path d="M379.15 254.1L556.39 236.65" stroke="rgba(205, 250, 231, 1)" stroke-width="1.5"></path>
        <path d="M379.15 254.1L235.11 365.97" stroke="rgba(205, 250, 231, 1)" stroke-width="1.5"></path>
        <path d="M405.69 363.39L405.69 363.39" stroke="rgba(205, 250, 231, 1)" stroke-width="1.5"></path>
        <path d="M405.69 363.39L343.97 502.82" stroke="rgba(205, 250, 231, 1)" stroke-width="1.5"></path>
        <path d="M405.69 363.39L235.11 365.97" stroke="rgba(205, 250, 231, 1)" stroke-width="1.5"></path>
        <path d="M405.69 363.39L556.39 236.65" stroke="rgba(205, 250, 231, 1)" stroke-width="1.5"></path>
        <path d="M343.97 502.82L343.97 502.82" stroke="rgba(205, 250, 231, 1)" stroke-width="1.5"></path>
        <path d="M343.97 502.82L235.11 365.97" stroke="rgba(205, 250, 231, 1)" stroke-width="1.5"></path>
        <path d="M343.97 502.82L549.35 550.84" stroke="rgba(205, 250, 231, 1)" stroke-width="1.5"></path>
        <path d="M556.39 236.65L556.39 236.65" stroke="rgba(205, 250, 231, 1)" stroke-width="1.5"></path>
        <path d="M556.39 236.65L640.79 193.58" stroke="rgba(205, 250, 231, 1)" stroke-width="1.5"></path>
        <path d="M556.39 236.65L657.74 373.79" stroke="rgba(205, 250, 231, 1)" stroke-width="1.5"></path>
        <path d="M549.35 550.84L549.35 550.84" stroke="rgba(205, 250, 231, 1)" stroke-width="1.5"></path>
        <path d="M549.35 550.84L689.49 559.84" stroke="rgba(205, 250, 231, 1)" stroke-width="1.5"></path>
        <path d="M549.35 550.84L657.74 373.79" stroke="rgba(205, 250, 231, 1)" stroke-width="1.5"></path>
        <path d="M549.35 550.84L405.69 363.39" stroke="rgba(205, 250, 231, 1)" stroke-width="1.5"></path>
        <path d="M549.35 550.84L842.09 497.78" stroke="rgba(205, 250, 231, 1)" stroke-width="1.5"></path>
        <path d="M640.79 193.58L640.79 193.58" stroke="rgba(205, 250, 231, 1)" stroke-width="1.5"></path>
        <path d="M640.79 193.58L793.33 207.52" stroke="rgba(205, 250, 231, 1)" stroke-width="1.5"></path>
        <path d="M640.79 193.58L657.74 373.79" stroke="rgba(205, 250, 231, 1)" stroke-width="1.5"></path>
        <path d="M657.74 373.79L657.74 373.79" stroke="rgba(205, 250, 231, 1)" stroke-width="1.5"></path>
        <path d="M657.74 373.79L800.82 384.91" stroke="rgba(205, 250, 231, 1)" stroke-width="1.5"></path>
        <path d="M657.74 373.79L689.49 559.84" stroke="rgba(205, 250, 231, 1)" stroke-width="1.5"></path>
        <path d="M689.49 559.84L689.49 559.84" stroke="rgba(205, 250, 231, 1)" stroke-width="1.5"></path>
        <path d="M689.49 559.84L842.09 497.78" stroke="rgba(205, 250, 231, 1)" stroke-width="1.5"></path>
        <path d="M689.49 559.84L800.82 384.91" stroke="rgba(205, 250, 231, 1)" stroke-width="1.5"></path>
        <path d="M689.49 559.84L950.96 366.8" stroke="rgba(205, 250, 231, 1)" stroke-width="1.5"></path>
        <path d="M813.23 -97.5L813.23 -97.5" stroke="rgba(205, 250, 231, 1)" stroke-width="1.5"></path>
        <path d="M813.23 -97.5L815.06 37.65" stroke="rgba(205, 250, 231, 1)" stroke-width="1.5"></path>
        <path d="M813.23 -97.5L1005.36 -69.68" stroke="rgba(205, 250, 231, 1)" stroke-width="1.5"></path>
        <path d="M813.23 -97.5L959.97 37.78" stroke="rgba(205, 250, 231, 1)" stroke-width="1.5"></path>
        <path d="M813.23 -97.5L1101.43 -88.4" stroke="rgba(205, 250, 231, 1)" stroke-width="1.5"></path>
        <path d="M815.06 37.65L815.06 37.65" stroke="rgba(205, 250, 231, 1)" stroke-width="1.5"></path>
        <path d="M815.06 37.65L959.97 37.78" stroke="rgba(205, 250, 231, 1)" stroke-width="1.5"></path>
        <path d="M793.33 207.52L793.33 207.52" stroke="rgba(205, 250, 231, 1)" stroke-width="1.5"></path>
        <path d="M793.33 207.52L946.04 259.95" stroke="rgba(205, 250, 231, 1)" stroke-width="1.5"></path>
        <path d="M800.82 384.91L800.82 384.91" stroke="rgba(205, 250, 231, 1)" stroke-width="1.5"></path>
        <path d="M800.82 384.91L842.09 497.78" stroke="rgba(205, 250, 231, 1)" stroke-width="1.5"></path>
        <path d="M800.82 384.91L950.96 366.8" stroke="rgba(205, 250, 231, 1)" stroke-width="1.5"></path>
        <path d="M800.82 384.91L793.33 207.52" stroke="rgba(205, 250, 231, 1)" stroke-width="1.5"></path>
        <path d="M842.09 497.78L842.09 497.78" stroke="rgba(205, 250, 231, 1)" stroke-width="1.5"></path>
        <path d="M1005.36 -69.68L1005.36 -69.68" stroke="rgba(205, 250, 231, 1)" stroke-width="1.5"></path>
        <path d="M1005.36 -69.68L1101.43 -88.4" stroke="rgba(205, 250, 231, 1)" stroke-width="1.5"></path>
        <path d="M1005.36 -69.68L959.97 37.78" stroke="rgba(205, 250, 231, 1)" stroke-width="1.5"></path>
        <path d="M1005.36 -69.68L1099.4 79.99" stroke="rgba(205, 250, 231, 1)" stroke-width="1.5"></path>
        <path d="M959.97 37.78L959.97 37.78" stroke="rgba(205, 250, 231, 1)" stroke-width="1.5"></path>
        <path d="M959.97 37.78L1099.4 79.99" stroke="rgba(205, 250, 231, 1)" stroke-width="1.5"></path>
        <path d="M946.04 259.95L946.04 259.95" stroke="rgba(205, 250, 231, 1)" stroke-width="1.5"></path>
        <path d="M946.04 259.95L950.96 366.8" stroke="rgba(205, 250, 231, 1)" stroke-width="1.5"></path>
        <path d="M950.96 366.8L950.96 366.8" stroke="rgba(205, 250, 231, 1)" stroke-width="1.5"></path>
        <path d="M950.96 366.8L1011.8 492.68" stroke="rgba(205, 250, 231, 1)" stroke-width="1.5"></path>
        <path d="M1011.8 492.68L1011.8 492.68" stroke="rgba(205, 250, 231, 1)" stroke-width="1.5"></path>
        <path d="M1011.8 492.68L1090.64 516.7" stroke="rgba(205, 250, 231, 1)" stroke-width="1.5"></path>
        <path d="M1011.8 492.68L842.09 497.78" stroke="rgba(205, 250, 231, 1)" stroke-width="1.5"></path>
        <path d="M1011.8 492.68L1137.9 364.3" stroke="rgba(205, 250, 231, 1)" stroke-width="1.5"></path>
        <path d="M1101.43 -88.4L1101.43 -88.4" stroke="rgba(205, 250, 231, 1)" stroke-width="1.5"></path>
        <path d="M1101.43 -88.4L1099.4 79.99" stroke="rgba(205, 250, 231, 1)" stroke-width="1.5"></path>
        <path d="M1101.43 -88.4L1274.67 -108.19" stroke="rgba(205, 250, 231, 1)" stroke-width="1.5"></path>
        <path d="M1101.43 -88.4L959.97 37.78" stroke="rgba(205, 250, 231, 1)" stroke-width="1.5"></path>
        <path d="M1101.43 -88.4L1256.75 54.71" stroke="rgba(205, 250, 231, 1)" stroke-width="1.5"></path>
        <path d="M1099.4 79.99L1099.4 79.99" stroke="rgba(205, 250, 231, 1)" stroke-width="1.5"></path>
        <path d="M1099.4 79.99L1256.75 54.71" stroke="rgba(205, 250, 231, 1)" stroke-width="1.5"></path>
        <path d="M1099.4 79.99L946.04 259.95" stroke="rgba(205, 250, 231, 1)" stroke-width="1.5"></path>
        <path d="M1099.4 79.99L1287.34 248.03" stroke="rgba(205, 250, 231, 1)" stroke-width="1.5"></path>
        <path d="M1137.9 364.3L1137.9 364.3" stroke="rgba(205, 250, 231, 1)" stroke-width="1.5"></path>
        <path d="M1137.9 364.3L1295.07 353.35" stroke="rgba(205, 250, 231, 1)" stroke-width="1.5"></path>
        <path d="M1090.64 516.7L1090.64 516.7" stroke="rgba(205, 250, 231, 1)" stroke-width="1.5"></path>
        <path d="M1090.64 516.7L1137.9 364.3" stroke="rgba(205, 250, 231, 1)" stroke-width="1.5"></path>
        <path d="M1090.64 516.7L1263.08 500.9" stroke="rgba(205, 250, 231, 1)" stroke-width="1.5"></path>
        <path d="M1274.67 -108.19L1274.67 -108.19" stroke="rgba(205, 250, 231, 1)" stroke-width="1.5"></path>
        <path d="M1274.67 -108.19L1256.75 54.71" stroke="rgba(205, 250, 231, 1)" stroke-width="1.5"></path>
        <path d="M1274.67 -108.19L1099.4 79.99" stroke="rgba(205, 250, 231, 1)" stroke-width="1.5"></path>
        <path d="M1274.67 -108.19L1005.36 -69.68" stroke="rgba(205, 250, 231, 1)" stroke-width="1.5"></path>
        <path d="M1256.75 54.71L1256.75 54.71" stroke="rgba(205, 250, 231, 1)" stroke-width="1.5"></path>
        <path d="M1287.34 248.03L1287.34 248.03" stroke="rgba(205, 250, 231, 1)" stroke-width="1.5"></path>
        <path d="M1287.34 248.03L1295.07 353.35" stroke="rgba(205, 250, 231, 1)" stroke-width="1.5"></path>
        <path d="M1287.34 248.03L1137.9 364.3" stroke="rgba(205, 250, 231, 1)" stroke-width="1.5"></path>
        <path d="M1287.34 248.03L1256.75 54.71" stroke="rgba(205, 250, 231, 1)" stroke-width="1.5"></path>
        <path d="M1287.34 248.03L1263.08 500.9" stroke="rgba(205, 250, 231, 1)" stroke-width="1.5"></path>
        <path d="M1295.07 353.35L1295.07 353.35" stroke="rgba(205, 250, 231, 1)" stroke-width="1.5"></path>
        <path d="M1295.07 353.35L1263.08 500.9" stroke="rgba(205, 250, 231, 1)" stroke-width="1.5"></path>
        <path d="M1295.07 353.35L1090.64 516.7" stroke="rgba(205, 250, 231, 1)" stroke-width="1.5"></path>
        <path d="M1263.08 500.9L1263.08 500.9" stroke="rgba(205, 250, 231, 1)" stroke-width="1.5"></path>
        <path d="M1263.08 500.9L1137.9 364.3" stroke="rgba(205, 250, 231, 1)" stroke-width="1.5"></path>
        <circle r="5" cx="-90.06" cy="246.99" fill="rgba(205, 250, 231, 1)"></circle>
        <circle r="5" cx="-48.67" cy="355.74" fill="rgba(205, 250, 231, 1)"></circle>
        <circle r="5" cx="59.12" cy="213.52" fill="rgba(205, 250, 231, 1)"></circle>
        <circle r="5" cx="69.89" cy="378.68" fill="rgba(205, 250, 231, 1)"></circle>
        <circle r="5" cx="75.82" cy="515.16" fill="rgba(205, 250, 231, 1)"></circle>
        <circle r="5" cx="227.01" cy="256.17" fill="rgba(205, 250, 231, 1)"></circle>
        <circle r="5" cx="235.11" cy="365.97" fill="rgba(205, 250, 231, 1)"></circle>
        <circle r="5" cx="230.69" cy="556.01" fill="rgba(205, 250, 231, 1)"></circle>
        <circle r="5" cx="379.15" cy="254.1" fill="rgba(205, 250, 231, 1)"></circle>
        <circle r="5" cx="405.69" cy="363.39" fill="rgba(205, 250, 231, 1)"></circle>
        <circle r="5" cx="343.97" cy="502.82" fill="rgba(205, 250, 231, 1)"></circle>
        <circle r="5" cx="556.39" cy="236.65" fill="rgba(205, 250, 231, 1)"></circle>
        <circle r="5" cx="549.35" cy="550.84" fill="rgba(205, 250, 231, 1)"></circle>
        <circle r="5" cx="640.79" cy="193.58" fill="rgba(205, 250, 231, 1)"></circle>
        <circle r="5" cx="657.74" cy="373.79" fill="rgba(205, 250, 231, 1)"></circle>
        <circle r="5" cx="689.49" cy="559.84" fill="rgba(205, 250, 231, 1)"></circle>
        <circle r="5" cx="813.23" cy="-97.5" fill="rgba(205, 250, 231, 1)"></circle>
        <circle r="5" cx="815.06" cy="37.65" fill="rgba(205, 250, 231, 1)"></circle>
        <circle r="5" cx="793.33" cy="207.52" fill="rgba(205, 250, 231, 1)"></circle>
        <circle r="5" cx="800.82" cy="384.91" fill="rgba(205, 250, 231, 1)"></circle>
        <circle r="5" cx="842.09" cy="497.78" fill="rgba(205, 250, 231, 1)"></circle>
        <circle r="5" cx="1005.36" cy="-69.68" fill="rgba(205, 250, 231, 1)"></circle>
        <circle r="5" cx="959.97" cy="37.78" fill="rgba(205, 250, 231, 1)"></circle>
        <circle r="5" cx="946.04" cy="259.95" fill="rgba(205, 250, 231, 1)"></circle>
        <circle r="5" cx="950.96" cy="366.8" fill="rgba(205, 250, 231, 1)"></circle>
        <circle r="5" cx="1011.8" cy="492.68" fill="rgba(205, 250, 231, 1)"></circle>
        <circle r="5" cx="1101.43" cy="-88.4" fill="rgba(205, 250, 231, 1)"></circle>
        <circle r="5" cx="1099.4" cy="79.99" fill="rgba(205, 250, 231, 1)"></circle>
        <circle r="5" cx="1137.9" cy="364.3" fill="rgba(205, 250, 231, 1)"></circle>
        <circle r="5" cx="1090.64" cy="516.7" fill="rgba(205, 250, 231, 1)"></circle>
        <circle r="5" cx="1274.67" cy="-108.19" fill="rgba(205, 250, 231, 1)"></circle>
        <circle r="5" cx="1256.75" cy="54.71" fill="rgba(205, 250, 231, 1)"></circle>
        <circle r="5" cx="1287.34" cy="248.03" fill="rgba(205, 250, 231, 1)"></circle>
        <circle r="5" cx="1295.07" cy="353.35" fill="rgba(205, 250, 231, 1)"></circle>
        <circle r="5" cx="1263.08" cy="500.9" fill="rgba(205, 250, 231, 1)"></circle>
        <path d="M-95.08 539.51L-95.08 539.51" stroke="hsl(167.20000000000005, 35.3%, 33.9%)" stroke-width="1.5"></path>
        <path d="M-95.08 539.51L-103.43 390.04" stroke="hsl(167.20000000000005, 35.3%, 33.9%)" stroke-width="1.5"></path>
        <path d="M-95.08 539.51L100.33 359.2" stroke="hsl(167.20000000000005, 35.3%, 33.9%)" stroke-width="1.5"></path>
        <path d="M-95.08 539.51L253.1 493.65" stroke="hsl(167.20000000000005, 35.3%, 33.9%)" stroke-width="1.5"></path>
        <path d="M-95.08 539.51L245.9 371.79" stroke="hsl(167.20000000000005, 35.3%, 33.9%)" stroke-width="1.5"></path>
        <path d="M528.56 502.35L528.56 502.35" stroke="hsl(167.20000000000005, 35.3%, 33.9%)" stroke-width="1.5"></path>
        <path d="M528.56 502.35L536.79 341.93" stroke="hsl(167.20000000000005, 35.3%, 33.9%)" stroke-width="1.5"></path>
        <path d="M528.56 502.35L358.82 535.2" stroke="hsl(167.20000000000005, 35.3%, 33.9%)" stroke-width="1.5"></path>
        <path d="M680.05 191.84L680.05 191.84" stroke="hsl(167.20000000000005, 35.3%, 33.9%)" stroke-width="1.5"></path>
        <path d="M680.05 191.84L837.01 211.04" stroke="hsl(167.20000000000005, 35.3%, 33.9%)" stroke-width="1.5"></path>
        <path d="M680.05 191.84L536.79 341.93" stroke="hsl(167.20000000000005, 35.3%, 33.9%)" stroke-width="1.5"></path>
        <path d="M680.05 191.84L856.18 376.83" stroke="hsl(167.20000000000005, 35.3%, 33.9%)" stroke-width="1.5"></path>
        <path d="M680.05 191.84L942.56 236.67" stroke="hsl(167.20000000000005, 35.3%, 33.9%)" stroke-width="1.5"></path>
        <path d="M705.39 498.56L705.39 498.56" stroke="hsl(167.20000000000005, 35.3%, 33.9%)" stroke-width="1.5"></path>
        <path d="M705.39 498.56L856.97 542.44" stroke="hsl(167.20000000000005, 35.3%, 33.9%)" stroke-width="1.5"></path>
        <path d="M705.39 498.56L528.56 502.35" stroke="hsl(167.20000000000005, 35.3%, 33.9%)" stroke-width="1.5"></path>
        <path d="M942.56 236.67L942.56 236.67" stroke="hsl(167.20000000000005, 35.3%, 33.9%)" stroke-width="1.5"></path>
        <path d="M942.56 236.67L837.01 211.04" stroke="hsl(167.20000000000005, 35.3%, 33.9%)" stroke-width="1.5"></path>
        <path d="M942.56 236.67L997.35 355.18" stroke="hsl(167.20000000000005, 35.3%, 33.9%)" stroke-width="1.5"></path>
        <path d="M942.56 236.67L856.18 376.83" stroke="hsl(167.20000000000005, 35.3%, 33.9%)" stroke-width="1.5"></path>
        <path d="M942.56 236.67L995.04 69.57" stroke="hsl(167.20000000000005, 35.3%, 33.9%)" stroke-width="1.5"></path>
        <path d="M942.56 236.67L1140.91 230.37" stroke="hsl(167.20000000000005, 35.3%, 33.9%)" stroke-width="1.5"></path>
        <path d="M942.56 236.67L1095.17 407.71" stroke="hsl(167.20000000000005, 35.3%, 33.9%)" stroke-width="1.5"></path>
        <path d="M994.34 503.89L994.34 503.89" stroke="hsl(167.20000000000005, 35.3%, 33.9%)" stroke-width="1.5"></path>
        <path d="M994.34 503.89L1093 560.85" stroke="hsl(167.20000000000005, 35.3%, 33.9%)" stroke-width="1.5"></path>
        <path d="M994.34 503.89L1095.17 407.71" stroke="hsl(167.20000000000005, 35.3%, 33.9%)" stroke-width="1.5"></path>
        <path d="M994.34 503.89L856.97 542.44" stroke="hsl(167.20000000000005, 35.3%, 33.9%)" stroke-width="1.5"></path>
        <path d="M994.34 503.89L997.35 355.18" stroke="hsl(167.20000000000005, 35.3%, 33.9%)" stroke-width="1.5"></path>
        <path d="M994.34 503.89L856.18 376.83" stroke="hsl(167.20000000000005, 35.3%, 33.9%)" stroke-width="1.5"></path>
        <path d="M994.34 503.89L1246.43 521.01" stroke="hsl(167.20000000000005, 35.3%, 33.9%)" stroke-width="1.5"></path>
        <path d="M1140.91 230.37L1140.91 230.37" stroke="hsl(167.20000000000005, 35.3%, 33.9%)" stroke-width="1.5"></path>
        <path d="M1140.91 230.37L1153.28 108.27" stroke="hsl(167.20000000000005, 35.3%, 33.9%)" stroke-width="1.5"></path>
        <path d="M1140.91 230.37L1279.15 219.08" stroke="hsl(167.20000000000005, 35.3%, 33.9%)" stroke-width="1.5"></path>
        <path d="M1140.91 230.37L1095.17 407.71" stroke="hsl(167.20000000000005, 35.3%, 33.9%)" stroke-width="1.5"></path>
        <path d="M1140.91 230.37L997.35 355.18" stroke="hsl(167.20000000000005, 35.3%, 33.9%)" stroke-width="1.5"></path>
        <path d="M1140.91 230.37L1292 350.28" stroke="hsl(167.20000000000005, 35.3%, 33.9%)" stroke-width="1.5"></path>
        <path d="M1093 560.85L1093 560.85" stroke="hsl(167.20000000000005, 35.3%, 33.9%)" stroke-width="1.5"></path>
        <path d="M1093 560.85L1095.17 407.71" stroke="hsl(167.20000000000005, 35.3%, 33.9%)" stroke-width="1.5"></path>
        <path d="M1093 560.85L1246.43 521.01" stroke="hsl(167.20000000000005, 35.3%, 33.9%)" stroke-width="1.5"></path>
        <path d="M1093 560.85L997.35 355.18" stroke="hsl(167.20000000000005, 35.3%, 33.9%)" stroke-width="1.5"></path>
        <path d="M1093 560.85L856.97 542.44" stroke="hsl(167.20000000000005, 35.3%, 33.9%)" stroke-width="1.5"></path>
        <path d="M1279.15 219.08L1279.15 219.08" stroke="hsl(167.20000000000005, 35.3%, 33.9%)" stroke-width="1.5"></path>
        <path d="M1279.15 219.08L1292 350.28" stroke="hsl(167.20000000000005, 35.3%, 33.9%)" stroke-width="1.5"></path>
        <path d="M1279.15 219.08L1300.33 79.87" stroke="hsl(167.20000000000005, 35.3%, 33.9%)" stroke-width="1.5"></path>
        <path d="M1279.15 219.08L1153.28 108.27" stroke="hsl(167.20000000000005, 35.3%, 33.9%)" stroke-width="1.5"></path>
        <path d="M-103.43 390.04L-103.43 390.04" stroke="hsl(167.20000000000005, 35.3%, 33.9%)" stroke-width="1.5"></path>
        <path d="M-103.43 390.04L100.33 359.2" stroke="hsl(167.20000000000005, 35.3%, 33.9%)" stroke-width="1.5"></path>
        <path d="M-103.43 390.04L245.9 371.79" stroke="hsl(167.20000000000005, 35.3%, 33.9%)" stroke-width="1.5"></path>
        <path d="M100.33 359.2L100.33 359.2" stroke="hsl(167.20000000000005, 35.3%, 33.9%)" stroke-width="1.5"></path>
        <path d="M100.33 359.2L245.9 371.79" stroke="hsl(167.20000000000005, 35.3%, 33.9%)" stroke-width="1.5"></path>
        <path d="M100.33 359.2L253.1 493.65" stroke="hsl(167.20000000000005, 35.3%, 33.9%)" stroke-width="1.5"></path>
        <path d="M245.9 371.79L245.9 371.79" stroke="hsl(167.20000000000005, 35.3%, 33.9%)" stroke-width="1.5"></path>
        <path d="M245.9 371.79L345.04 396.43" stroke="hsl(167.20000000000005, 35.3%, 33.9%)" stroke-width="1.5"></path>
        <path d="M245.9 371.79L253.1 493.65" stroke="hsl(167.20000000000005, 35.3%, 33.9%)" stroke-width="1.5"></path>
        <path d="M245.9 371.79L358.82 535.2" stroke="hsl(167.20000000000005, 35.3%, 33.9%)" stroke-width="1.5"></path>
        <path d="M245.9 371.79L536.79 341.93" stroke="hsl(167.20000000000005, 35.3%, 33.9%)" stroke-width="1.5"></path>
        <path d="M245.9 371.79L528.56 502.35" stroke="hsl(167.20000000000005, 35.3%, 33.9%)" stroke-width="1.5"></path>
        <path d="M253.1 493.65L253.1 493.65" stroke="hsl(167.20000000000005, 35.3%, 33.9%)" stroke-width="1.5"></path>
        <path d="M253.1 493.65L358.82 535.2" stroke="hsl(167.20000000000005, 35.3%, 33.9%)" stroke-width="1.5"></path>
        <path d="M345.04 396.43L345.04 396.43" stroke="hsl(167.20000000000005, 35.3%, 33.9%)" stroke-width="1.5"></path>
        <path d="M345.04 396.43L253.1 493.65" stroke="hsl(167.20000000000005, 35.3%, 33.9%)" stroke-width="1.5"></path>
        <path d="M345.04 396.43L358.82 535.2" stroke="hsl(167.20000000000005, 35.3%, 33.9%)" stroke-width="1.5"></path>
        <path d="M345.04 396.43L536.79 341.93" stroke="hsl(167.20000000000005, 35.3%, 33.9%)" stroke-width="1.5"></path>
        <path d="M345.04 396.43L528.56 502.35" stroke="hsl(167.20000000000005, 35.3%, 33.9%)" stroke-width="1.5"></path>
        <path d="M358.82 535.2L358.82 535.2" stroke="hsl(167.20000000000005, 35.3%, 33.9%)" stroke-width="1.5"></path>
        <path d="M358.82 535.2L536.79 341.93" stroke="hsl(167.20000000000005, 35.3%, 33.9%)" stroke-width="1.5"></path>
        <path d="M536.79 341.93L536.79 341.93" stroke="hsl(167.20000000000005, 35.3%, 33.9%)" stroke-width="1.5"></path>
        <path d="M837.01 211.04L837.01 211.04" stroke="hsl(167.20000000000005, 35.3%, 33.9%)" stroke-width="1.5"></path>
        <path d="M837.01 211.04L856.18 376.83" stroke="hsl(167.20000000000005, 35.3%, 33.9%)" stroke-width="1.5"></path>
        <path d="M837.01 211.04L995.04 69.57" stroke="hsl(167.20000000000005, 35.3%, 33.9%)" stroke-width="1.5"></path>
        <path d="M856.18 376.83L856.18 376.83" stroke="hsl(167.20000000000005, 35.3%, 33.9%)" stroke-width="1.5"></path>
        <path d="M856.18 376.83L997.35 355.18" stroke="hsl(167.20000000000005, 35.3%, 33.9%)" stroke-width="1.5"></path>
        <path d="M856.97 542.44L856.97 542.44" stroke="hsl(167.20000000000005, 35.3%, 33.9%)" stroke-width="1.5"></path>
        <path d="M856.97 542.44L856.18 376.83" stroke="hsl(167.20000000000005, 35.3%, 33.9%)" stroke-width="1.5"></path>
        <path d="M856.97 542.44L997.35 355.18" stroke="hsl(167.20000000000005, 35.3%, 33.9%)" stroke-width="1.5"></path>
        <path d="M967.43 -77.22L967.43 -77.22" stroke="hsl(167.20000000000005, 35.3%, 33.9%)" stroke-width="1.5"></path>
        <path d="M967.43 -77.22L995.04 69.57" stroke="hsl(167.20000000000005, 35.3%, 33.9%)" stroke-width="1.5"></path>
        <path d="M967.43 -77.22L1131.88 -92.95" stroke="hsl(167.20000000000005, 35.3%, 33.9%)" stroke-width="1.5"></path>
        <path d="M995.04 69.57L995.04 69.57" stroke="hsl(167.20000000000005, 35.3%, 33.9%)" stroke-width="1.5"></path>
        <path d="M995.04 69.57L1153.28 108.27" stroke="hsl(167.20000000000005, 35.3%, 33.9%)" stroke-width="1.5"></path>
        <path d="M995.04 69.57L1131.88 -92.95" stroke="hsl(167.20000000000005, 35.3%, 33.9%)" stroke-width="1.5"></path>
        <path d="M997.35 355.18L997.35 355.18" stroke="hsl(167.20000000000005, 35.3%, 33.9%)" stroke-width="1.5"></path>
        <path d="M997.35 355.18L1095.17 407.71" stroke="hsl(167.20000000000005, 35.3%, 33.9%)" stroke-width="1.5"></path>
        <path d="M997.35 355.18L837.01 211.04" stroke="hsl(167.20000000000005, 35.3%, 33.9%)" stroke-width="1.5"></path>
        <path d="M1131.88 -92.95L1131.88 -92.95" stroke="hsl(167.20000000000005, 35.3%, 33.9%)" stroke-width="1.5"></path>
        <path d="M1131.88 -92.95L1153.28 108.27" stroke="hsl(167.20000000000005, 35.3%, 33.9%)" stroke-width="1.5"></path>
        <path d="M1131.88 -92.95L1300.33 79.87" stroke="hsl(167.20000000000005, 35.3%, 33.9%)" stroke-width="1.5"></path>
        <path d="M1153.28 108.27L1153.28 108.27" stroke="hsl(167.20000000000005, 35.3%, 33.9%)" stroke-width="1.5"></path>
        <path d="M1153.28 108.27L1300.33 79.87" stroke="hsl(167.20000000000005, 35.3%, 33.9%)" stroke-width="1.5"></path>
        <path d="M1153.28 108.27L942.56 236.67" stroke="hsl(167.20000000000005, 35.3%, 33.9%)" stroke-width="1.5"></path>
        <path d="M1095.17 407.71L1095.17 407.71" stroke="hsl(167.20000000000005, 35.3%, 33.9%)" stroke-width="1.5"></path>
        <path d="M1300.33 79.87L1300.33 79.87" stroke="hsl(167.20000000000005, 35.3%, 33.9%)" stroke-width="1.5"></path>
        <path d="M1292 350.28L1292 350.28" stroke="hsl(167.20000000000005, 35.3%, 33.9%)" stroke-width="1.5"></path>
        <path d="M1292 350.28L1246.43 521.01" stroke="hsl(167.20000000000005, 35.3%, 33.9%)" stroke-width="1.5"></path>
        <path d="M1292 350.28L1095.17 407.71" stroke="hsl(167.20000000000005, 35.3%, 33.9%)" stroke-width="1.5"></path>
        <path d="M1292 350.28L1300.33 79.87" stroke="hsl(167.20000000000005, 35.3%, 33.9%)" stroke-width="1.5"></path>
        <path d="M1246.43 521.01L1246.43 521.01" stroke="hsl(167.20000000000005, 35.3%, 33.9%)" stroke-width="1.5"></path>
        <path d="M1246.43 521.01L1095.17 407.71" stroke="hsl(167.20000000000005, 35.3%, 33.9%)" stroke-width="1.5"></path>
        <circle r="25" cx="-95.08" cy="539.51" fill="url(&quot;#SvgjsRadialGradient1057&quot;)"></circle>
        <circle r="25" cx="528.56" cy="502.35" fill="url(&quot;#SvgjsRadialGradient1057&quot;)"></circle>
        <circle r="25" cx="680.05" cy="191.84" fill="url(&quot;#SvgjsRadialGradient1057&quot;)"></circle>
        <circle r="25" cx="705.39" cy="498.56" fill="url(&quot;#SvgjsRadialGradient1057&quot;)"></circle>
        <circle r="25" cx="942.56" cy="236.67" fill="url(&quot;#SvgjsRadialGradient1057&quot;)"></circle>
        <circle r="25" cx="994.34" cy="503.89" fill="url(&quot;#SvgjsRadialGradient1057&quot;)"></circle>
        <circle r="25" cx="1140.91" cy="230.37" fill="url(&quot;#SvgjsRadialGradient1057&quot;)"></circle>
        <circle r="25" cx="1093" cy="560.85" fill="url(&quot;#SvgjsRadialGradient1057&quot;)"></circle>
        <circle r="25" cx="1279.15" cy="219.08" fill="url(&quot;#SvgjsRadialGradient1057&quot;)"></circle>
        <circle r="5" cx="-103.43" cy="390.04" fill="#95ada8"></circle>
        <circle r="5" cx="100.33" cy="359.2" fill="#95ada8"></circle>
        <circle r="5" cx="245.9" cy="371.79" fill="#95ada8"></circle>
        <circle r="5" cx="253.1" cy="493.65" fill="#95ada8"></circle>
        <circle r="5" cx="345.04" cy="396.43" fill="#95ada8"></circle>
        <circle r="5" cx="358.82" cy="535.2" fill="#95ada8"></circle>
        <circle r="5" cx="536.79" cy="341.93" fill="#95ada8"></circle>
        <circle r="5" cx="837.01" cy="211.04" fill="#95ada8"></circle>
        <circle r="5" cx="856.18" cy="376.83" fill="#95ada8"></circle>
        <circle r="5" cx="856.97" cy="542.44" fill="#95ada8"></circle>
        <circle r="5" cx="967.43" cy="-77.22" fill="#95ada8"></circle>
        <circle r="5" cx="995.04" cy="69.57" fill="#95ada8"></circle>
        <circle r="5" cx="997.35" cy="355.18" fill="#95ada8"></circle>
        <circle r="5" cx="1131.88" cy="-92.95" fill="#95ada8"></circle>
        <circle r="5" cx="1153.28" cy="108.27" fill="#95ada8"></circle>
        <circle r="5" cx="1095.17" cy="407.71" fill="#95ada8"></circle>
        <circle r="5" cx="1300.33" cy="79.87" fill="#95ada8"></circle>
        <circle r="5" cx="1292" cy="350.28" fill="#95ada8"></circle>
        <circle r="5" cx="1246.43" cy="521.01" fill="#95ada8"></circle>
    </g>
    <defs>
        <mask id="SvgjsMask1055">
            <rect width="1200" height="320" fill="#ffffff"></rect>
        </mask>
        <linearGradient x1="18.33%" y1="-68.75%" x2="81.67%" y2="168.75%" gradientUnits="userSpaceOnUse" id="SvgjsLinearGradient1056">
            <stop stop-color="rgba(236, 253, 245, 1)" offset="0"></stop>
            <stop stop-color="rgba(64, 133, 118, 1)" offset="1"></stop>
        </linearGradient>
        <radialGradient id="SvgjsRadialGradient1057">
            <stop stop-color="#ffffff" offset="0.1"></stop>
            <stop stop-color="rgba(43, 90, 80, 1)" offset="0.2"></stop>
            <stop stop-color="rgba(43, 90, 80, 0)" offset="1"></stop>
        </radialGradient>
    </defs>
</svg>
