<svg xmlns="http://www.w3.org/2000/svg" xmlns:xlink="http://www.w3.org/1999/xlink" width="500" zoomAndPan="magnify" viewBox="0 0 375 374.999991" height="500" preserveAspectRatio="xMidYMid meet" version="1.0"><defs><clipPath id="6be5c964dc"><path d="M 0 10 L 375 10 L 375 365.90625 L 0 365.90625 Z M 0 10 " clip-rule="nonzero"/></clipPath><clipPath id="02d153af26"><path d="M 162 198 L 205 198 L 205 323.5 L 162 323.5 Z M 162 198 " clip-rule="nonzero"/></clipPath><clipPath id="f1d53a879f"><path d="M 180 123 L 193 123 L 193 323.5 L 180 323.5 Z M 180 123 " clip-rule="nonzero"/></clipPath><clipPath id="20966dcfbb"><path d="M 151 51.25 L 223 51.25 L 223 110 L 151 110 Z M 151 51.25 " clip-rule="nonzero"/></clipPath></defs><g clip-path="url(#6be5c964dc)"><path fill="#ffcc00" d="M 187.988281 10.140625 L 245.757812 127.257812 L 375 146.042969 L 281.457031 237.265625 L 303.605469 365.980469 L 187.988281 305.214844 L 72.289062 365.980469 L 94.367188 237.265625 L 0.898438 146.042969 L 130.140625 127.257812 Z M 187.988281 10.140625 " fill-opacity="1" fill-rule="nonzero"/></g><path fill="#ffcc00" d="M 187.089844 9.019531 L 244.9375 126.136719 L 374.175781 144.917969 L 280.632812 236.144531 L 302.710938 364.859375 L 187.089844 304.09375 L 71.46875 364.859375 L 93.542969 236.144531 L 0 144.917969 L 129.242188 126.136719 Z M 187.089844 9.019531 " fill-opacity="1" fill-rule="nonzero"/><path fill="#ffcc00" d="M 187.089844 9.019531 L 244.9375 126.136719 L 374.175781 144.917969 L 280.632812 236.144531 L 302.710938 364.859375 L 187.089844 304.09375 L 71.46875 364.859375 L 93.542969 236.144531 L 0 144.917969 L 129.242188 126.136719 Z M 187.089844 9.019531 " fill-opacity="1" fill-rule="nonzero"/><path fill="#ffcc00" d="M 187.089844 9.019531 L 244.9375 126.136719 L 374.175781 144.917969 L 280.632812 236.144531 L 302.710938 364.859375 L 187.089844 304.09375 L 71.46875 364.859375 L 93.542969 236.144531 L 0 144.917969 L 129.242188 126.136719 Z M 187.089844 9.019531 " fill-opacity="1" fill-rule="nonzero"/><g clip-path="url(#02d153af26)"><path fill="#e8ebe8" d="M 183.539062 323.390625 C 183.28125 323.519531 177.75 317.050781 177.363281 316.628906 C 173.886719 312.828125 170.417969 309.023438 166.941406 305.214844 C 163.628906 301.589844 162.125 298.039062 163.023438 292.183594 L 163.546875 281.574219 L 168.601562 272.558594 L 164.066406 276.195312 L 165.34375 257.253906 L 167.785156 253.46875 L 165.867188 254.679688 C 165.867188 254.679688 166.449219 237.785156 170.167969 228.84375 L 182.609375 198.085938 L 184.699219 198.085938 L 197.367188 230.507812 C 197.367188 230.507812 200.972656 237.78125 201.4375 251.421875 L 196.847656 250.210938 L 201.957031 258.316406 L 203.21875 277.730469 L 200.503906 275.105469 L 203.21875 283.289062 L 201.046875 281.773438 C 201.046875 281.773438 204.074219 288.378906 204.144531 288.539062 C 204.722656 289.800781 204.15625 293.71875 204.144531 295.207031 C 204.097656 302.578125 200.1875 305.855469 196.261719 309.984375 C 192.570312 313.871094 188.878906 317.761719 185.1875 321.648438 C 184.644531 322.230469 184.09375 322.808594 183.539062 323.390625 Z M 183.539062 323.390625 " fill-opacity="1" fill-rule="nonzero"/></g><g clip-path="url(#f1d53a879f)"><path fill="#ffffff" d="M 192.285156 123.0625 L 186.699219 320.066406 L 183.546875 323.390625 L 180.480469 320.1875 L 180.980469 123.0625 Z M 192.285156 123.0625 " fill-opacity="1" fill-rule="nonzero"/></g><path fill="#e8ebe8" d="M 230.359375 319.464844 C 230.128906 319.648438 223.441406 314.53125 222.980469 314.203125 C 218.835938 311.246094 214.683594 308.28125 210.535156 305.320312 C 206.578125 302.5 204.402344 299.359375 204.125 293.429688 L 202.542969 282.945312 L 205.707031 273.019531 L 201.992188 277.566406 L 199.5 258.757812 L 201.136719 254.519531 L 199.5 256.121094 C 199.5 256.121094 196.730469 239.46875 198.601562 229.914062 L 204.691406 197.109375 L 206.738281 196.652344 L 225.539062 225.597656 C 225.539062 225.597656 230.503906 231.917969 233.648438 245.160156 L 228.921875 244.976562 L 235.527344 251.785156 L 240.59375 270.503906 L 237.425781 268.527344 L 241.695312 275.9375 L 239.273438 274.933594 C 239.273438 274.933594 243.535156 280.730469 243.640625 280.875 C 244.453125 281.980469 244.675781 285.9375 244.957031 287.390625 C 246.367188 294.613281 243.1875 298.675781 240.167969 303.574219 C 237.324219 308.1875 234.484375 312.792969 231.636719 317.40625 C 231.207031 318.089844 230.785156 318.777344 230.359375 319.464844 Z M 230.359375 319.464844 " fill-opacity="1" fill-rule="nonzero"/><path fill="#e8ebe8" d="M 294.097656 309.71875 C 293.90625 309.945312 286.359375 306.402344 285.839844 306.183594 C 281.199219 304.195312 276.554688 302.207031 271.914062 300.21875 C 267.484375 298.328125 264.734375 295.730469 263.292969 289.988281 L 259.671875 280.074219 L 260.804688 269.679688 L 258.070312 274.941406 L 251.917969 257.09375 L 252.683594 252.585938 L 251.402344 254.511719 C 251.402344 254.511719 245.402344 238.832031 245.347656 229.070312 L 244.820312 195.648438 L 246.726562 194.753906 L 270.835938 218.953125 C 270.835938 218.953125 276.9375 224.054688 282.632812 236.308594 L 277.96875 237.171875 L 285.773438 242.386719 L 294.429688 259.589844 L 290.9375 258.351562 L 296.578125 264.664062 L 294.007812 264.210938 C 294.007812 264.210938 299.324219 268.949219 299.453125 269.0625 C 300.464844 269.964844 301.460938 273.785156 302.027344 275.152344 C 304.832031 281.90625 302.527344 286.574219 300.539062 292.027344 C 298.671875 297.160156 296.800781 302.289062 294.929688 307.425781 C 294.652344 308.191406 294.375 308.957031 294.097656 309.71875 Z M 294.097656 309.71875 " fill-opacity="1" fill-rule="nonzero"/><path fill="#ffffff" d="M 199.328125 121.609375 L 232.796875 315.523438 L 230.363281 319.464844 L 226.734375 317 L 188.273438 124.078125 Z M 199.328125 121.609375 " fill-opacity="1" fill-rule="nonzero"/><path fill="#e8ebe8" d="M 268.359375 311.675781 C 268.15625 312.136719 260.351562 305.859375 259.914062 305.375 C 255.300781 301.683594 251.140625 298.097656 247.21875 295.402344 C 243.464844 292.863281 241.34375 289.878906 240.734375 283.972656 C 240.039062 280.679688 239.300781 277.765625 238.460938 275.023438 C 239.21875 271.703125 239.917969 268.628906 240.5625 265.757812 C 239.566406 267.328125 238.507812 269.007812 237.375 270.792969 C 235.832031 266.058594 233.925781 261.523438 231.597656 256.332031 C 232.050781 255 232.488281 253.703125 232.917969 252.429688 C 232.324219 252.953125 231.710938 253.496094 231.078125 254.058594 C 231.375 254.667969 223.152344 238.773438 223.703125 228.472656 C 224.308594 217.519531 224.757812 206.832031 224.847656 195.097656 C 225.5 194.84375 226.144531 194.566406 226.777344 194.265625 C 235.402344 204.683594 244.574219 219.757812 250.058594 227.855469 C 250.164062 227.839844 254.371094 233.800781 257.808594 242.289062 C 256.585938 242.632812 255.460938 242.914062 254.378906 243.148438 C 256.082031 244.347656 257.871094 245.417969 259.96875 246.539062 C 262.054688 250.558594 264.59375 254.800781 267.792969 260.152344 C 266.421875 259.574219 265.164062 259.042969 263.992188 258.542969 C 265.835938 260.453125 267.910156 262.589844 270.253906 265.015625 C 269.15625 264.613281 268.121094 264.230469 267.140625 263.871094 C 266.941406 263.6875 273.585938 269.679688 273.972656 270.03125 C 275.382812 271.28125 276.675781 275.417969 277.441406 277.066406 C 281.3125 285.335938 277.125 288.269531 274.6875 292.660156 C 272.296875 296.867188 270.558594 301.808594 269.039062 308.539062 C 268.804688 309.546875 268.582031 310.589844 268.359375 311.675781 Z M 268.359375 311.675781 " fill-opacity="1" fill-rule="nonzero"/><path fill="#ffffff" d="M 208.304688 121.363281 L 270.183594 307.386719 L 268.367188 311.675781 L 264.414062 309.84375 L 197.757812 125.625 Z M 208.304688 121.363281 " fill-opacity="1" fill-rule="nonzero"/><path fill="#ffffff" d="M 220.710938 122.429688 L 294.769531 303.457031 L 293.242188 307.871094 L 289.175781 306.332031 L 210.46875 127.457031 Z M 220.710938 122.429688 " fill-opacity="1" fill-rule="nonzero"/><path fill="#e8ebe8" d="M 139.097656 318.035156 C 138.820312 318.105469 134.5625 310.652344 134.261719 310.15625 C 131.542969 305.726562 128.824219 301.296875 126.101562 296.863281 C 123.511719 292.636719 122.671875 288.851562 124.617188 283.277344 L 127.050781 272.96875 L 133.652344 265.136719 L 128.546875 267.796875 L 133.234375 249.460938 L 136.316406 246.230469 L 134.214844 247.035156 C 134.214844 247.035156 137.847656 230.570312 143.117188 222.542969 L 160.902344 194.847656 L 162.957031 195.269531 L 169.511719 229.644531 C 169.511719 229.644531 171.734375 237.503906 169.71875 250.980469 L 165.433594 248.871094 L 168.984375 257.855469 L 166.699219 277.167969 L 164.511719 274.039062 L 165.6875 282.617188 L 163.832031 280.695312 C 163.832031 280.695312 165.605469 287.785156 165.648438 287.957031 C 165.988281 289.304688 164.722656 293.042969 164.445312 294.503906 C 163.058594 301.730469 158.628906 304.160156 154.03125 307.425781 C 149.699219 310.5 145.371094 313.574219 141.042969 316.652344 C 140.390625 317.113281 139.742188 317.574219 139.097656 318.035156 Z M 139.097656 318.035156 " fill-opacity="1" fill-rule="nonzero"/><path fill="#ffffff" d="M 183.996094 123.140625 L 142.800781 315.402344 L 139.097656 318.035156 L 136.671875 314.273438 L 172.90625 120.875 Z M 183.996094 123.140625 " fill-opacity="1" fill-rule="nonzero"/><path fill="#e8ebe8" d="M 90.402344 313.105469 C 90.121094 313.132812 87.023438 305.066406 86.796875 304.527344 C 84.769531 299.703125 82.738281 294.878906 80.710938 290.054688 C 78.78125 285.453125 78.511719 281.578125 81.261719 276.394531 L 85.195312 266.617188 L 92.878906 259.96875 L 87.441406 261.757812 L 94.792969 244.421875 L 98.320312 241.738281 L 96.121094 242.1875 C 96.121094 242.1875 102.15625 226.523438 108.554688 219.460938 L 130.238281 195.039062 L 132.203125 195.792969 L 133.574219 230.820312 C 133.574219 230.820312 134.597656 238.953125 130.605469 251.929688 L 126.6875 249.140625 L 128.855469 258.597656 L 123.726562 277.300781 L 122.035156 273.859375 L 121.921875 282.523438 L 120.375 280.320312 C 120.375 280.320312 121.066406 287.613281 121.085938 287.789062 C 121.21875 289.179688 119.414062 292.660156 118.921875 294.050781 C 116.476562 300.964844 111.738281 302.632812 106.714844 305.105469 C 101.976562 307.429688 97.25 309.757812 92.511719 312.078125 C 91.8125 312.410156 91.109375 312.761719 90.402344 313.105469 Z M 90.402344 313.105469 " fill-opacity="1" fill-rule="nonzero"/><path fill="#ffffff" d="M 163.957031 126.402344 L 94.6875 309.519531 L 90.644531 311.503906 L 88.800781 307.390625 L 153.335938 122.339844 Z M 163.957031 126.402344 " fill-opacity="1" fill-rule="nonzero"/><path fill="#e8ebe8" d="M 106.464844 310.613281 C 106.203125 310.335938 103.632812 300.582031 103.375 300.3125 C 101.546875 295.15625 99.46875 290.976562 96.867188 287.058594 C 94.324219 283.394531 93.71875 279.535156 97.480469 273.371094 C 99.226562 269.707031 100.914062 266.230469 102.496094 262.988281 C 105.597656 260.433594 108.289062 258.214844 110.683594 256.226562 C 108.984375 256.847656 107.136719 257.519531 105.09375 258.269531 C 107.824219 252.898438 110.136719 248.261719 112.164062 243.769531 C 113.191406 243.125 114.167969 242.488281 115.105469 241.84375 C 114.507812 241.921875 113.894531 241.996094 113.269531 242.0625 C 113.417969 242.011719 117.664062 230.308594 122.816406 222.617188 C 128.511719 214.484375 136.511719 201.699219 144.34375 191.8125 C 144.988281 192.085938 145.644531 192.34375 146.296875 192.585938 C 146.570312 205.101562 147.273438 216.164062 148.195312 227.589844 C 148.242188 227.332031 149.800781 235.882812 144.40625 248.816406 C 142.59375 248.015625 140.929688 247.273438 139.382812 246.570312 C 140.273438 249.292969 141.230469 252.109375 142.238281 255.054688 C 140.199219 260.730469 138.449219 265.914062 136.957031 271.253906 C 136.292969 270.066406 135.652344 268.90625 135.027344 267.785156 C 135.128906 270.34375 135.246094 272.96875 135.378906 275.699219 C 134.8125 274.882812 134.261719 274.078125 133.726562 273.296875 C 133.707031 273.21875 134.839844 280.359375 134.886719 280.617188 C 135.101562 282.007812 133.585938 285.183594 133.230469 286.621094 C 131.398438 293.636719 127.179688 295.527344 122.578125 298.796875 C 118.242188 301.917969 113.570312 305.664062 108.660156 309.097656 C 107.929688 309.625 107.195312 310.128906 106.464844 310.613281 Z M 106.464844 310.613281 " fill-opacity="1" fill-rule="nonzero"/><path fill="#ffffff" d="M 176.703125 124.195312 C 170.761719 140.671875 163.207031 161.003906 157.351562 176.753906 C 151.292969 193.027344 146.9375 204.722656 142.824219 216.121094 C 138.691406 227.550781 134.824219 238.675781 129.339844 254.480469 C 124.019531 269.816406 117.09375 289.828125 110.578125 308.234375 C 109.1875 309.089844 107.8125 309.890625 106.464844 310.613281 C 105.851562 309.179688 105.21875 307.824219 104.554688 306.53125 C 110.066406 289.96875 117.160156 269.753906 122.753906 253.886719 C 128.523438 237.527344 132.785156 225.507812 136.648438 213.96875 C 140.542969 202.371094 144.023438 191.25 148.855469 175.558594 C 153.574219 160.261719 159.652344 140.382812 166.011719 120.320312 C 169.484375 121.957031 172.992188 123.285156 176.703125 124.195312 Z M 176.703125 124.195312 " fill-opacity="1" fill-rule="nonzero"/><path fill="#1a322a" d="M 222.746094 127.4375 L 151.289062 127.4375 L 151.289062 109.59375 L 222.746094 109.59375 Z M 222.746094 127.4375 " fill-opacity="1" fill-rule="nonzero"/><g clip-path="url(#20966dcfbb)"><path fill="#ffffff" d="M 222.746094 109.59375 L 222.746094 95.289062 C 222.746094 71.105469 206.75 51.496094 187.015625 51.496094 C 167.28125 51.496094 151.28125 71.105469 151.28125 95.289062 L 151.28125 109.59375 Z M 222.746094 109.59375 " fill-opacity="1" fill-rule="nonzero"/></g><path fill="#ffffff" d="M 181.613281 180.742188 C 202.273438 180.523438 219.113281 182.210938 230.558594 183.386719 C 237.195312 184.070312 242.726562 184.769531 246.621094 185.296875 C 247.40625 187.359375 248.183594 189.425781 248.964844 191.492188 C 236.320312 189.453125 222.535156 187.886719 207.738281 187.136719 C 178.039062 185.640625 151.554688 187.816406 129.277344 191.328125 C 130.027344 189.1875 130.773438 187.039062 131.519531 184.894531 C 151.515625 181.808594 168.570312 180.882812 181.613281 180.742188 Z M 181.613281 180.742188 " fill-opacity="1" fill-rule="nonzero"/><path fill="#ffffff" d="M 183.394531 151.4375 C 199.675781 151.234375 213.1875 152.9375 221.675781 154.039062 C 226.917969 154.714844 231.289062 155.417969 234.421875 155.953125 C 235.261719 157.996094 236.09375 160.039062 236.929688 162.082031 C 226.976562 160.15625 215.914062 158.628906 203.886719 157.90625 C 178.839844 156.414062 156.933594 158.871094 139.382812 162.347656 C 140.113281 160.25 140.847656 158.144531 141.578125 156.046875 C 158.421875 152.554688 172.726562 151.574219 183.394531 151.4375 Z M 183.394531 151.4375 " fill-opacity="1" fill-rule="nonzero"/></svg>
