<svg xmlns="http://www.w3.org/2000/svg" xmlns:xlink="http://www.w3.org/1999/xlink" width="1000" zoomAndPan="magnify" viewBox="0 0 750 214.499994" height="286" preserveAspectRatio="xMidYMid meet" version="1.0"><defs><g/><clipPath id="c91f7692f4"><path d="M 498 25 L 670.832031 25 L 670.832031 189.40625 L 498 189.40625 Z M 498 25 " clip-rule="nonzero"/></clipPath><clipPath id="a159cfb359"><path d="M 497.984375 24.789062 L 670.832031 24.789062 L 670.832031 189 L 497.984375 189 Z M 497.984375 24.789062 " clip-rule="nonzero"/></clipPath><clipPath id="d2d16fcb4c"><path d="M 572 111 L 593 111 L 593 169.601562 L 572 169.601562 Z M 572 111 " clip-rule="nonzero"/></clipPath><clipPath id="74ae833cf3"><path d="M 581 77 L 587 77 L 587 169.601562 L 581 169.601562 Z M 581 77 " clip-rule="nonzero"/></clipPath><clipPath id="dc19c25ca4"><path d="M 534.320312 110 L 560 110 L 560 165 L 534.320312 165 Z M 534.320312 110 " clip-rule="nonzero"/></clipPath><clipPath id="7b49b2dd72"><path d="M 567 44.640625 L 601 44.640625 L 601 72 L 567 72 Z M 567 44.640625 " clip-rule="nonzero"/></clipPath></defs><g clip-path="url(#c91f7692f4)"><path fill="#FFCC00" d="M 584.515625 25.359375 L 611.109375 79.269531 L 670.597656 87.914062 L 627.539062 129.90625 L 637.734375 189.15625 L 584.515625 161.183594 L 531.261719 189.15625 L 541.421875 129.90625 L 498.398438 87.914062 L 557.886719 79.269531 Z M 584.515625 25.359375 " fill-opacity="1" fill-rule="nonzero"/></g><g clip-path="url(#a159cfb359)"><path fill="#FFCC00" d="M 584.101562 24.84375 L 610.730469 78.753906 L 670.21875 87.398438 L 627.160156 129.390625 L 637.324219 188.636719 L 584.101562 160.667969 L 530.882812 188.636719 L 541.042969 129.390625 L 497.984375 87.398438 L 557.472656 78.753906 Z M 584.101562 24.84375 " fill-opacity="1" fill-rule="nonzero"/><path fill="#FFCC00" d="M 584.101562 24.84375 L 610.730469 78.753906 L 670.21875 87.398438 L 627.160156 129.390625 L 637.324219 188.636719 L 584.101562 160.667969 L 530.882812 188.636719 L 541.042969 129.390625 L 497.984375 87.398438 L 557.472656 78.753906 Z M 584.101562 24.84375 " fill-opacity="1" fill-rule="nonzero"/><path fill="#FFCC00" d="M 584.101562 24.84375 L 610.730469 78.753906 L 670.21875 87.398438 L 627.160156 129.390625 L 637.324219 188.636719 L 584.101562 160.667969 L 530.882812 188.636719 L 541.042969 129.390625 L 497.984375 87.398438 L 557.472656 78.753906 Z M 584.101562 24.84375 " fill-opacity="1" fill-rule="nonzero"/></g><g clip-path="url(#d2d16fcb4c)"><path fill="#e8ebe8" d="M 582.46875 169.546875 C 582.347656 169.605469 579.804688 166.628906 579.625 166.4375 C 578.027344 164.6875 576.429688 162.9375 574.828125 161.183594 C 573.304688 159.515625 572.613281 157.878906 573.027344 155.183594 L 573.265625 150.300781 L 575.59375 146.152344 L 573.503906 147.824219 L 574.09375 139.105469 L 575.21875 137.363281 L 574.332031 137.921875 C 574.332031 137.921875 574.601562 130.144531 576.3125 126.027344 L 582.039062 111.871094 L 583.003906 111.871094 L 588.835938 126.796875 C 588.835938 126.796875 590.492188 130.140625 590.707031 136.421875 L 588.59375 135.863281 L 590.949219 139.59375 L 591.527344 148.53125 L 590.277344 147.324219 L 591.527344 151.089844 L 590.527344 150.390625 C 590.527344 150.390625 591.921875 153.433594 591.953125 153.507812 C 592.21875 154.085938 591.960938 155.890625 591.953125 156.574219 C 591.929688 159.96875 590.132812 161.476562 588.324219 163.378906 C 586.625 165.167969 584.925781 166.957031 583.226562 168.746094 C 582.976562 169.015625 582.726562 169.28125 582.46875 169.546875 Z M 582.46875 169.546875 " fill-opacity="1" fill-rule="nonzero"/></g><g clip-path="url(#74ae833cf3)"><path fill="#ffffff" d="M 586.492188 77.335938 L 583.921875 168.019531 L 582.472656 169.546875 L 581.0625 168.074219 L 581.292969 77.335938 Z M 586.492188 77.335938 " fill-opacity="1" fill-rule="nonzero"/></g><path fill="#e8ebe8" d="M 604.019531 167.742188 C 603.914062 167.828125 600.835938 165.46875 600.625 165.320312 C 598.714844 163.957031 596.804688 162.59375 594.894531 161.230469 C 593.074219 159.933594 592.070312 158.488281 591.945312 155.757812 L 591.214844 150.929688 L 592.671875 146.363281 L 590.960938 148.457031 L 589.816406 139.796875 L 590.570312 137.847656 L 589.816406 138.585938 C 589.816406 138.585938 588.539062 130.917969 589.402344 126.523438 L 592.203125 111.421875 L 593.148438 111.210938 L 601.800781 124.535156 C 601.800781 124.535156 604.085938 127.445312 605.535156 133.539062 L 603.359375 133.453125 L 606.398438 136.589844 L 608.730469 145.207031 L 607.273438 144.296875 L 609.238281 147.707031 L 608.125 147.246094 C 608.125 147.246094 610.085938 149.910156 610.132812 149.976562 C 610.507812 150.488281 610.609375 152.308594 610.738281 152.976562 C 611.390625 156.300781 609.925781 158.171875 608.535156 160.425781 C 607.226562 162.550781 605.917969 164.671875 604.609375 166.792969 C 604.410156 167.109375 604.214844 167.425781 604.019531 167.742188 Z M 604.019531 167.742188 " fill-opacity="1" fill-rule="nonzero"/><path fill="#e8ebe8" d="M 633.359375 163.253906 C 633.273438 163.359375 629.796875 161.730469 629.558594 161.628906 C 627.421875 160.710938 625.285156 159.796875 623.148438 158.882812 C 621.109375 158.011719 619.84375 156.816406 619.179688 154.175781 L 617.515625 149.609375 L 618.035156 144.824219 L 616.773438 147.246094 L 613.945312 139.03125 L 614.296875 136.957031 L 613.707031 137.84375 C 613.707031 137.84375 610.945312 130.625 610.917969 126.132812 L 610.675781 110.75 L 611.554688 110.335938 L 622.652344 121.476562 C 622.652344 121.476562 625.460938 123.824219 628.082031 129.464844 L 625.9375 129.863281 L 629.527344 132.261719 L 633.511719 140.183594 L 631.90625 139.613281 L 634.5 142.515625 L 633.316406 142.308594 C 633.316406 142.308594 635.765625 144.488281 635.824219 144.539062 C 636.289062 144.957031 636.75 146.714844 637.011719 147.34375 C 638.300781 150.453125 637.238281 152.601562 636.324219 155.113281 C 635.464844 157.476562 634.601562 159.835938 633.742188 162.199219 C 633.613281 162.550781 633.484375 162.90625 633.359375 163.253906 Z M 633.359375 163.253906 " fill-opacity="1" fill-rule="nonzero"/><path fill="#ffffff" d="M 589.738281 76.667969 L 605.140625 165.929688 L 604.023438 167.742188 L 602.351562 166.609375 L 584.648438 77.804688 Z M 589.738281 76.667969 " fill-opacity="1" fill-rule="nonzero"/><path fill="#e8ebe8" d="M 621.511719 164.15625 C 621.417969 164.371094 617.824219 161.480469 617.625 161.257812 C 615.5 159.558594 613.585938 157.90625 611.78125 156.664062 C 610.050781 155.496094 609.078125 154.121094 608.796875 151.402344 C 608.476562 149.890625 608.136719 148.546875 607.75 147.285156 C 608.097656 145.757812 608.417969 144.339844 608.714844 143.019531 C 608.257812 143.742188 607.769531 144.515625 607.25 145.339844 C 606.539062 143.160156 605.664062 141.070312 604.589844 138.683594 C 604.800781 138.070312 605 137.472656 605.199219 136.886719 C 604.925781 137.125 604.644531 137.375 604.351562 137.632812 C 604.488281 137.914062 600.703125 130.601562 600.957031 125.859375 C 601.234375 120.816406 601.441406 115.898438 601.484375 110.496094 C 601.785156 110.378906 602.082031 110.25 602.371094 110.113281 C 606.34375 114.910156 610.5625 121.847656 613.089844 125.574219 C 613.136719 125.566406 615.074219 128.308594 616.65625 132.21875 C 616.09375 132.375 615.574219 132.507812 615.078125 132.613281 C 615.859375 133.164062 616.683594 133.660156 617.648438 134.175781 C 618.609375 136.023438 619.777344 137.976562 621.253906 140.441406 C 620.621094 140.175781 620.039062 139.929688 619.5 139.699219 C 620.351562 140.578125 621.304688 141.5625 622.382812 142.679688 C 621.878906 142.496094 621.402344 142.316406 620.949219 142.152344 C 620.859375 142.066406 623.917969 144.824219 624.097656 144.988281 C 624.746094 145.5625 625.339844 147.464844 625.691406 148.226562 C 627.472656 152.03125 625.546875 153.382812 624.425781 155.402344 C 623.324219 157.339844 622.523438 159.613281 621.824219 162.714844 C 621.71875 163.175781 621.613281 163.65625 621.511719 164.15625 Z M 621.511719 164.15625 " fill-opacity="1" fill-rule="nonzero"/><path fill="#ffffff" d="M 593.867188 76.554688 L 622.351562 162.183594 L 621.515625 164.15625 L 619.695312 163.3125 L 589.011719 78.515625 Z M 593.867188 76.554688 " fill-opacity="1" fill-rule="nonzero"/><path fill="#ffffff" d="M 599.578125 77.046875 L 633.667969 160.371094 L 632.964844 162.40625 L 631.09375 161.695312 L 594.863281 79.359375 Z M 599.578125 77.046875 " fill-opacity="1" fill-rule="nonzero"/><path fill="#e8ebe8" d="M 562.011719 167.082031 C 561.886719 167.117188 559.925781 163.683594 559.785156 163.457031 C 558.535156 161.417969 557.28125 159.378906 556.03125 157.335938 C 554.835938 155.394531 554.453125 153.648438 555.347656 151.085938 L 556.46875 146.339844 L 559.507812 142.734375 L 557.15625 143.957031 L 559.3125 135.519531 L 560.734375 134.03125 L 559.765625 134.402344 C 559.765625 134.402344 561.4375 126.824219 563.863281 123.128906 L 572.050781 110.378906 L 572.996094 110.574219 L 576.011719 126.398438 C 576.011719 126.398438 577.035156 130.015625 576.105469 136.21875 L 574.132812 135.246094 L 575.769531 139.382812 L 574.71875 148.273438 L 573.710938 146.832031 L 574.25 150.78125 L 573.398438 149.898438 C 573.398438 149.898438 574.214844 153.160156 574.234375 153.238281 C 574.390625 153.859375 573.808594 155.578125 573.679688 156.25 C 573.039062 159.578125 571 160.699219 568.886719 162.199219 C 566.894531 163.617188 564.898438 165.03125 562.90625 166.445312 C 562.609375 166.660156 562.308594 166.871094 562.011719 167.082031 Z M 562.011719 167.082031 " fill-opacity="1" fill-rule="nonzero"/><path fill="#ffffff" d="M 582.679688 77.371094 L 563.71875 165.871094 L 562.011719 167.082031 L 560.894531 165.351562 L 577.574219 76.332031 Z M 582.679688 77.371094 " fill-opacity="1" fill-rule="nonzero"/><g clip-path="url(#dc19c25ca4)"><path fill="#e8ebe8" d="M 539.597656 164.8125 C 539.46875 164.828125 538.042969 161.113281 537.9375 160.867188 C 537.003906 158.644531 536.070312 156.425781 535.136719 154.203125 C 534.246094 152.085938 534.125 150.304688 535.390625 147.917969 L 537.203125 143.417969 L 540.738281 140.355469 L 538.234375 141.179688 L 541.621094 133.199219 L 543.242188 131.964844 L 542.230469 132.171875 C 542.230469 132.171875 545.007812 124.960938 547.953125 121.710938 L 557.933594 110.46875 L 558.839844 110.816406 L 559.46875 126.9375 C 559.46875 126.9375 559.941406 130.683594 558.101562 136.65625 L 556.300781 135.371094 L 557.296875 139.722656 L 554.9375 148.332031 L 554.15625 146.75 L 554.105469 150.738281 L 553.394531 149.722656 C 553.394531 149.722656 553.714844 153.082031 553.722656 153.164062 C 553.78125 153.800781 552.953125 155.402344 552.722656 156.042969 C 551.601562 159.226562 549.417969 159.996094 547.105469 161.132812 C 544.925781 162.203125 542.75 163.273438 540.570312 164.339844 C 540.246094 164.496094 539.921875 164.65625 539.597656 164.8125 Z M 539.597656 164.8125 " fill-opacity="1" fill-rule="nonzero"/></g><path fill="#ffffff" d="M 573.453125 78.875 L 541.570312 163.164062 L 539.707031 164.078125 L 538.859375 162.183594 L 568.566406 77.003906 Z M 573.453125 78.875 " fill-opacity="1" fill-rule="nonzero"/><path fill="#e8ebe8" d="M 546.992188 163.667969 C 546.871094 163.539062 545.6875 159.050781 545.570312 158.925781 C 544.726562 156.554688 543.769531 154.628906 542.574219 152.824219 C 541.402344 151.136719 541.125 149.363281 542.855469 146.523438 C 543.660156 144.835938 544.433594 143.238281 545.164062 141.746094 C 546.59375 140.570312 547.832031 139.546875 548.933594 138.632812 C 548.152344 138.917969 547.300781 139.230469 546.359375 139.574219 C 547.617188 137.101562 548.683594 134.964844 549.613281 132.898438 C 550.085938 132.601562 550.539062 132.308594 550.96875 132.011719 C 550.691406 132.046875 550.410156 132.082031 550.125 132.113281 C 550.191406 132.089844 552.148438 126.703125 554.519531 123.160156 C 557.140625 119.417969 560.820312 113.535156 564.425781 108.984375 C 564.722656 109.109375 565.023438 109.226562 565.328125 109.339844 C 565.453125 115.101562 565.777344 120.191406 566.199219 125.453125 C 566.222656 125.332031 566.9375 129.269531 564.457031 135.222656 C 563.621094 134.855469 562.855469 134.511719 562.144531 134.1875 C 562.554688 135.441406 562.992188 136.738281 563.457031 138.09375 C 562.519531 140.707031 561.714844 143.09375 561.027344 145.550781 C 560.722656 145.003906 560.425781 144.46875 560.140625 143.953125 C 560.1875 145.132812 560.238281 146.339844 560.300781 147.597656 C 560.039062 147.222656 559.785156 146.851562 559.539062 146.492188 C 559.53125 146.453125 560.054688 149.742188 560.074219 149.859375 C 560.171875 150.5 559.476562 151.960938 559.3125 152.625 C 558.46875 155.851562 556.527344 156.722656 554.410156 158.230469 C 552.414062 159.664062 550.261719 161.390625 548.003906 162.96875 C 547.664062 163.210938 547.328125 163.445312 546.992188 163.667969 Z M 546.992188 163.667969 " fill-opacity="1" fill-rule="nonzero"/><path fill="#ffffff" d="M 579.320312 77.859375 C 576.585938 85.441406 573.109375 94.800781 570.414062 102.050781 C 567.625 109.542969 565.621094 114.925781 563.726562 120.171875 C 561.824219 125.433594 560.046875 130.554688 557.519531 137.828125 C 555.074219 144.886719 551.882812 154.101562 548.882812 162.574219 C 548.246094 162.964844 547.613281 163.335938 546.992188 163.667969 C 546.710938 163.007812 546.417969 162.382812 546.113281 161.789062 C 548.648438 154.164062 551.914062 144.859375 554.488281 137.554688 C 557.144531 130.023438 559.105469 124.492188 560.886719 119.179688 C 562.675781 113.84375 564.277344 108.726562 566.503906 101.5 C 568.675781 94.460938 571.472656 85.308594 574.398438 76.074219 C 576 76.828125 577.613281 77.4375 579.320312 77.859375 Z M 579.320312 77.859375 " fill-opacity="1" fill-rule="nonzero"/><path fill="#1a322a" d="M 600.515625 79.351562 L 567.625 79.351562 L 567.625 71.136719 L 600.515625 71.136719 Z M 600.515625 79.351562 " fill-opacity="1" fill-rule="nonzero"/><g clip-path="url(#7b49b2dd72)"><path fill="#ffffff" d="M 600.515625 71.136719 L 600.515625 64.554688 C 600.515625 53.421875 593.152344 44.394531 584.070312 44.394531 C 574.984375 44.394531 567.621094 53.421875 567.621094 64.554688 L 567.621094 71.136719 Z M 600.515625 71.136719 " fill-opacity="1" fill-rule="nonzero"/></g><path fill="#ffffff" d="M 581.582031 103.886719 C 591.09375 103.785156 598.84375 104.5625 604.113281 105.105469 C 607.167969 105.417969 609.710938 105.742188 611.507812 105.984375 C 611.867188 106.933594 612.222656 107.882812 612.585938 108.835938 C 606.765625 107.898438 600.417969 107.175781 593.609375 106.832031 C 579.9375 106.140625 567.746094 107.144531 557.492188 108.761719 C 557.835938 107.773438 558.179688 106.785156 558.523438 105.800781 C 567.730469 104.378906 575.578125 103.953125 581.582031 103.886719 Z M 581.582031 103.886719 " fill-opacity="1" fill-rule="nonzero"/><path fill="#ffffff" d="M 582.402344 90.398438 C 589.898438 90.304688 596.117188 91.089844 600.023438 91.59375 C 602.4375 91.90625 604.449219 92.230469 605.890625 92.476562 C 606.277344 93.417969 606.660156 94.355469 607.046875 95.296875 C 602.464844 94.410156 597.371094 93.707031 591.835938 93.375 C 580.304688 92.6875 570.222656 93.820312 562.144531 95.421875 C 562.480469 94.453125 562.816406 93.484375 563.15625 92.519531 C 570.90625 90.914062 577.492188 90.460938 582.402344 90.398438 Z M 582.402344 90.398438 " fill-opacity="1" fill-rule="nonzero"/><g fill="#ffffff" fill-opacity="1"><g transform="translate(42.685117, 143.962324)"><g><path d="M 36.859375 0.84375 L 42.15625 1.265625 L 49.578125 0.734375 L 55.828125 -0.53125 L 57.734375 -1.59375 L 59.953125 -2.328125 L 61.765625 -3.171875 L 66.953125 -6.890625 L 69.921875 -9.859375 L 72.359375 -13.03125 L 74.578125 -16.84375 L 77.328125 -24.890625 L 76.703125 -26.796875 L 74.578125 -28.171875 L 68.640625 -27.75 L 66.53125 -28.078125 L 64.40625 -27.96875 L 62.296875 -28.078125 L 59.859375 -26.796875 L 58.15625 -25.109375 L 57.09375 -23.09375 L 54.65625 -20.34375 L 52.96875 -18.859375 L 51.375 -18.21875 L 47.671875 -16.203125 L 42.0625 -15.890625 L 38.984375 -16.203125 L 35.171875 -17.578125 L 31.46875 -19.5 L 28.390625 -22.25 L 26.0625 -25.953125 L 25.3125 -28.078125 L 24.578125 -29.5625 L 24.046875 -31.46875 L 23.734375 -33.796875 L 23.734375 -40.25 L 24.46875 -44.5 L 26.0625 -48.3125 L 27.125 -50.3125 L 29.65625 -53.28125 L 32.203125 -55.296875 L 35.0625 -56.890625 L 42.15625 -57.84375 L 46.71875 -57.625 L 50 -56.671875 L 51.90625 -55.9375 L 53.390625 -54.765625 L 56.46875 -51.703125 L 57.625 -50.109375 L 59.640625 -48.09375 L 62.078125 -46.9375 L 63.984375 -47.140625 L 66.203125 -47.03125 L 68.328125 -47.140625 L 71.296875 -46.828125 L 74.46875 -47.140625 L 76.28125 -47.984375 L 77.015625 -50.109375 L 76.375 -52.4375 L 75.640625 -54.34375 L 75 -56.578125 L 73.84375 -58.265625 L 72.890625 -59.953125 L 71.40625 -61.765625 L 70.234375 -63.78125 L 67.265625 -66.84375 L 60.0625 -71.40625 L 49.890625 -74.796875 L 47.890625 -74.890625 L 45.765625 -75.21875 L 39.203125 -75.328125 L 28.921875 -73.3125 L 21.078125 -69.59375 L 18.015625 -67.265625 L 13.453125 -63.140625 L 10.59375 -59.53125 L 8.578125 -56.46875 L 5.9375 -50.53125 L 4.875 -46.1875 L 3.8125 -37.078125 L 4.453125 -29.34375 L 5.9375 -23.3125 L 10.484375 -14.09375 L 14.828125 -9.421875 L 19.59375 -5.296875 L 24.15625 -2.859375 L 28.921875 -0.84375 L 30.828125 -0.421875 L 32.953125 0.3125 L 34.859375 0.734375 Z M 36.859375 0.84375 "/></g></g></g><g fill="#ffffff" fill-opacity="1"><g transform="translate(123.509091, 143.962324)"><g><path d="M 39.625 1.265625 L 45.546875 1.171875 L 51.90625 0.3125 L 59.859375 -2.328125 L 63.34375 -4.234375 L 64.9375 -5.515625 L 66.953125 -6.46875 L 69.921875 -9 L 71.296875 -10.90625 L 72.78125 -12.390625 L 77.4375 -19.5 L 79.03125 -23.515625 L 79.875 -27.546875 L 79.984375 -29.453125 L 80.515625 -31.5625 L 80.625 -33.796875 L 81.046875 -36.859375 L 80.71875 -42.15625 L 79.984375 -46.5 L 77.328125 -54.453125 L 75.328125 -58.375 L 72.984375 -61.546875 L 70.03125 -64.828125 L 66.953125 -67.484375 L 64.515625 -69.171875 L 61.34375 -70.546875 L 59.75 -71.71875 L 51.59375 -74.265625 L 45.453125 -75.328125 L 42.59375 -75.421875 L 31.359375 -73.84375 L 23.40625 -70.875 L 21.828125 -69.703125 L 19.921875 -68.75 L 16.3125 -66.109375 L 11.125 -60.0625 L 7.84375 -54.453125 L 6.25 -50.421875 L 4.453125 -42.265625 L 4.125 -33.6875 L 4.453125 -31.46875 L 4.984375 -29.5625 L 5.1875 -27.546875 L 6.140625 -23.515625 L 11.015625 -13.875 L 12.28125 -12.609375 L 13.671875 -10.90625 L 15.25 -9.421875 L 16.421875 -8.046875 L 19.921875 -5.296875 L 28.171875 -1.0625 L 31.25 0 L 33.578125 0.21875 L 37.390625 1.0625 Z M 45.546875 -17.484375 L 39.71875 -17.484375 L 37.390625 -17.796875 L 33.578125 -19.390625 L 31.890625 -20.34375 L 29.03125 -22.671875 L 27.65625 -24.15625 L 26.171875 -26.171875 L 25.640625 -27.859375 L 24.6875 -29.765625 L 23.828125 -33.6875 L 23.828125 -40.15625 L 24.359375 -42.0625 L 24.6875 -44.0625 L 25.53125 -45.984375 L 26.171875 -47.890625 L 28.703125 -51.28125 L 34 -54.875 L 35.390625 -55.40625 L 39.515625 -56.46875 L 42.484375 -56.671875 L 47.5625 -56.046875 L 49.46875 -55.609375 L 51.375 -54.765625 L 54.65625 -52.4375 L 58.796875 -48.09375 L 60.0625 -44.0625 L 61.015625 -42.0625 L 61.34375 -40.15625 L 61.125 -33.6875 L 60.28125 -29.765625 L 59.53125 -27.859375 L 58.375 -25.953125 L 57.734375 -24.359375 L 56.25 -22.671875 L 51.171875 -19.171875 L 49.265625 -18.640625 L 47.671875 -17.90625 Z M 45.546875 -17.484375 "/></g></g></g><g fill="#ffffff" fill-opacity="1"><g transform="translate(208.464303, 143.962324)"><g><path d="M 31.25 0.84375 L 36.34375 1.265625 L 41.640625 1.0625 L 45.875 0.109375 L 48.09375 -0.734375 L 50.21875 -1.265625 L 51.90625 -2.328125 L 53.8125 -3.171875 L 55.515625 -4.34375 L 60.28125 -8.578125 L 61.4375 -10.484375 L 62.828125 -12.078125 L 63.453125 -14.203125 L 64.515625 -16 L 65.25 -18.015625 L 66 -28.703125 L 65.6875 -37.296875 L 66.109375 -39.515625 L 66.109375 -41.421875 L 65.6875 -43.546875 L 65.578125 -45.546875 L 65.78125 -47.78125 L 65.6875 -50.75 L 65.890625 -54.03125 L 65.78125 -56.359375 L 66.109375 -58.375 L 65.78125 -60.484375 L 65.890625 -69.078125 L 65.578125 -70.875 L 64.734375 -73.203125 L 61.34375 -74.15625 L 51.375 -74.265625 L 49.046875 -73.3125 L 47.984375 -70.984375 L 48.09375 -60.59375 L 47.890625 -58.484375 L 47.984375 -54.34375 L 47.78125 -52.125 L 48.09375 -49.890625 L 47.78125 -41.53125 L 48.203125 -39.625 L 47.984375 -37.296875 L 48.09375 -33.46875 L 47.890625 -31.359375 L 47.984375 -25.953125 L 47.5625 -22.5625 L 46.609375 -20.546875 L 45.65625 -19.0625 L 43.96875 -17.484375 L 39.71875 -16.109375 L 36.859375 -15.890625 L 33.375 -16.109375 L 31.46875 -16.625 L 29.125 -17.796875 L 27.546875 -19.171875 L 26.265625 -20.65625 L 25.640625 -22.875 L 25.421875 -41.53125 L 25.109375 -43.640625 L 25 -50.21875 L 25.21875 -52.125 L 25.21875 -60.59375 L 24.890625 -63.671875 L 24.890625 -65.6875 L 25.421875 -68.859375 L 25.421875 -71.078125 L 24.265625 -73.09375 L 21.71875 -74.046875 L 10.59375 -74.15625 L 8.46875 -72.984375 L 7.515625 -70.875 L 7.515625 -64.515625 L 6.984375 -62.71875 L 7.421875 -58.265625 L 7.09375 -54.234375 L 7.625 -47.890625 L 7.203125 -45.875 L 7.515625 -43.546875 L 7.3125 -41.53125 L 7.421875 -39.40625 L 7.203125 -37.390625 L 7.515625 -33.15625 L 7.421875 -25.53125 L 7.734375 -22.453125 L 7.734375 -20.234375 L 8.375 -18.109375 L 8.6875 -16.109375 L 9.328125 -14.09375 L 11.4375 -10.484375 L 14.296875 -6.984375 L 15.671875 -5.609375 L 19.28125 -3.5 L 20.875 -2.21875 L 22.875 -1.375 L 25.3125 -0.640625 L 26.90625 0.21875 L 29.234375 0.3125 Z M 31.25 0.84375 "/></g></g></g><g fill="#ffffff" fill-opacity="1"><g transform="translate(281.555454, 143.962324)"><g><path d="M 8.15625 -3.390625 L 8.90625 -1.0625 L 11.015625 0 L 13.03125 0.109375 L 17.375 -0.21875 L 19.59375 0 L 22.78125 0 L 26.0625 -1.0625 L 26.796875 -3.078125 L 27.015625 -5.296875 L 26.59375 -7.515625 L 26.90625 -12.078125 L 26.703125 -18.640625 L 27.65625 -20.765625 L 29.765625 -21.828125 L 31.671875 -21.828125 L 33.578125 -21.921875 L 36.234375 -21.078125 L 37.921875 -19.28125 L 40.6875 -15.578125 L 41.421875 -13.5625 L 44.390625 -8.265625 L 45.765625 -6.25 L 46.71875 -4.453125 L 47.984375 -2.75 L 50.109375 -0.84375 L 52.75 -0.21875 L 56.578125 0 L 58.90625 -0.21875 L 61.015625 0 L 65.25 0 L 67.59375 -0.21875 L 69.8125 -0.734375 L 70.234375 -2.96875 L 68.859375 -5.609375 L 65.46875 -10.8125 L 64.515625 -12.609375 L 63.25 -14.515625 L 62.1875 -16.421875 L 60.8125 -18.109375 L 57.625 -23.625 L 57.3125 -26.171875 L 58.484375 -28.390625 L 61.4375 -31.25 L 62.71875 -33.046875 L 63.453125 -35.0625 L 64.625 -36.96875 L 65.359375 -38.765625 L 66.53125 -42.796875 L 66.640625 -51.171875 L 66.109375 -53.1875 L 65.78125 -55.1875 L 65.25 -57.3125 L 62.390625 -63.140625 L 60.90625 -64.734375 L 59.953125 -66.3125 L 54.65625 -70.34375 L 50.953125 -72.25 L 42.15625 -74.046875 L 39.515625 -74.265625 L 36.4375 -74.15625 L 34.109375 -74.265625 L 32 -74.046875 L 29.65625 -74.265625 L 27.859375 -74.046875 L 21.5 -74.265625 L 19.5 -73.9375 L 15.15625 -74.375 L 13.140625 -74.046875 L 10.8125 -74.15625 L 8.796875 -73.203125 L 7.9375 -70.984375 L 7.625 -41.3125 L 7.9375 -38.25 L 7.9375 -32.953125 L 7.734375 -30.71875 L 7.625 -26.703125 L 7.9375 -24.359375 L 7.625 -20.015625 L 8.046875 -13.875 L 7.84375 -11.65625 Z M 29.765625 -38.984375 L 27.96875 -39.9375 L 26.90625 -42.15625 L 26.59375 -54.03125 L 27.859375 -56.140625 L 29.984375 -57.203125 L 31.671875 -57.3125 L 37.5 -57.203125 L 42.375 -56.578125 L 45.65625 -54.5625 L 46.71875 -52.96875 L 47.453125 -51.28125 L 47.671875 -48.203125 L 47.359375 -45.34375 L 46.5 -43.21875 L 45.34375 -41.421875 L 44.0625 -40.15625 L 42.484375 -39.40625 L 34.21875 -38.671875 L 32.09375 -38.984375 Z M 29.765625 -38.984375 "/></g></g></g><g fill="#ffffff" fill-opacity="1"><g transform="translate(354.964394, 143.962324)"><g><path d="M 20.34375 -3.28125 L 21.1875 -1.0625 L 23.40625 0 L 25.421875 -0.21875 L 27.546875 0 L 29.5625 -0.21875 L 36.125 -0.21875 L 38.25 -1.0625 L 39.09375 -3.171875 L 38.984375 -5.1875 L 39.203125 -7.625 L 39.09375 -11.859375 L 38.765625 -13.671875 L 39.09375 -15.890625 L 39.296875 -22.359375 L 39.09375 -24.265625 L 39.40625 -28.703125 L 38.984375 -49.796875 L 39.296875 -51.90625 L 39.09375 -54.234375 L 39.9375 -56.140625 L 42.265625 -57.09375 L 44.0625 -57.203125 L 46.1875 -57.09375 L 48.09375 -57.3125 L 53.921875 -57.203125 L 56.359375 -58.15625 L 57.421875 -60.28125 L 57.203125 -62.5 L 57.421875 -71.1875 L 56.359375 -73.3125 L 54.234375 -74.375 L 51.703125 -74.15625 L 50 -74.375 L 47.984375 -74.375 L 45.65625 -74.046875 L 43.546875 -74.046875 L 41.421875 -74.265625 L 39.296875 -74.265625 L 36.859375 -73.9375 L 5.296875 -74.15625 L 2.96875 -73.09375 L 1.90625 -70.984375 L 1.796875 -60.390625 L 2.96875 -58.046875 L 5.078125 -57 L 7.84375 -57.3125 L 17.265625 -57.203125 L 19.171875 -56.046875 L 20.234375 -54.03125 L 20.546875 -42.375 L 20.234375 -39.09375 L 20.453125 -37.078125 L 20.234375 -34.953125 L 20.234375 -30.71875 L 20.546875 -27.65625 L 20.125 -24.46875 L 20.234375 -22.359375 L 20.125 -20.125 L 20.453125 -13.671875 L 20.234375 -11.546875 Z M 20.34375 -3.28125 "/></g></g></g><g fill="#ffffff" fill-opacity="1"><g transform="translate(414.178792, 143.962324)"><g><path d="M 28.5 0.953125 L 36.859375 1.171875 L 38.984375 0.953125 L 41.109375 0.421875 L 43.21875 0.109375 L 45.34375 -0.734375 L 47.25 -0.953125 L 49.265625 -1.90625 L 56.46875 -6.25 L 59.53125 -9.421875 L 60.59375 -10.90625 L 61.765625 -13.234375 L 62.390625 -15.15625 L 63.03125 -16.953125 L 63.671875 -22.25 L 63.453125 -25.640625 L 61.875 -31.78125 L 60.703125 -33.46875 L 57.953125 -36.65625 L 56.046875 -38.34375 L 54.34375 -39.203125 L 52.4375 -40.359375 L 44.171875 -42.90625 L 42.0625 -43.21875 L 39.9375 -43.328125 L 37.71875 -43.75 L 34.640625 -43.75 L 29.03125 -44.921875 L 25.109375 -46.828125 L 23.515625 -48.3125 L 23.09375 -51.484375 L 23.625 -54.34375 L 24.890625 -55.71875 L 26.484375 -56.890625 L 28.171875 -57.84375 L 30.09375 -58.265625 L 33.46875 -58.375 L 36.859375 -57.953125 L 38.765625 -57.421875 L 40.6875 -56.140625 L 42.484375 -54.65625 L 44.0625 -52.546875 L 46.40625 -51.171875 L 51.375 -51.59375 L 54.234375 -51.375 L 56.359375 -51.375 L 58.265625 -51.171875 L 60.28125 -52.65625 L 61.125 -54.453125 L 60.703125 -56.46875 L 60.484375 -58.484375 L 57.53125 -63.984375 L 55.1875 -67.171875 L 48.203125 -72.03125 L 42.265625 -74.046875 L 38.140625 -74.890625 L 29.984375 -75.109375 L 27.65625 -74.46875 L 25.53125 -74.375 L 23.625 -74.046875 L 19.59375 -72.78125 L 16 -70.65625 L 10.90625 -67.171875 L 7.203125 -62.1875 L 5.296875 -56.359375 L 4.984375 -51.171875 L 5.078125 -47.890625 L 5.828125 -43.640625 L 7.515625 -39.9375 L 11.4375 -35.0625 L 18.640625 -31.140625 L 22.453125 -29.875 L 39.09375 -27.96875 L 42.90625 -26.171875 L 44.28125 -24.890625 L 44.921875 -22.25 L 44.0625 -19.59375 L 42.6875 -18.015625 L 39.09375 -16.421875 L 35.8125 -16.203125 L 33.90625 -15.890625 L 28.5 -16.421875 L 26.703125 -17.375 L 24.890625 -18.53125 L 21.40625 -22.359375 L 19.28125 -23.203125 L 17.375 -22.984375 L 15.359375 -23.3125 L 7.203125 -22.875 L 5.296875 -22.03125 L 4.453125 -19.8125 L 4.765625 -17.6875 L 5.1875 -15.578125 L 5.828125 -13.671875 L 7.84375 -9.75 L 9.328125 -8.375 L 10.703125 -6.78125 L 14.40625 -4.453125 L 15.890625 -2.859375 L 17.90625 -1.90625 L 20.015625 -1.265625 L 24.15625 0.21875 Z M 28.5 0.953125 "/></g></g></g><g fill="#ffffff" fill-opacity="1"><g transform="translate(481.761619, 143.962324)"><g><path d="M 20.34375 -3.28125 L 21.1875 -1.0625 L 23.40625 0 L 25.421875 -0.21875 L 27.546875 0 L 29.5625 -0.21875 L 36.125 -0.21875 L 38.25 -1.0625 L 39.09375 -3.171875 L 38.984375 -5.1875 L 39.203125 -7.625 L 39.09375 -11.859375 L 38.765625 -13.671875 L 39.09375 -15.890625 L 39.296875 -22.359375 L 39.09375 -24.265625 L 39.40625 -28.703125 L 38.984375 -49.796875 L 39.296875 -51.90625 L 39.09375 -54.234375 L 39.9375 -56.140625 L 42.265625 -57.09375 L 44.0625 -57.203125 L 46.1875 -57.09375 L 48.09375 -57.3125 L 53.921875 -57.203125 L 56.359375 -58.15625 L 57.421875 -60.28125 L 57.203125 -62.5 L 57.421875 -71.1875 L 56.359375 -73.3125 L 54.234375 -74.375 L 51.703125 -74.15625 L 50 -74.375 L 47.984375 -74.375 L 45.65625 -74.046875 L 43.546875 -74.046875 L 41.421875 -74.265625 L 39.296875 -74.265625 L 36.859375 -73.9375 L 5.296875 -74.15625 L 2.96875 -73.09375 L 1.90625 -70.984375 L 1.796875 -60.390625 L 2.96875 -58.046875 L 5.078125 -57 L 7.84375 -57.3125 L 17.265625 -57.203125 L 19.171875 -56.046875 L 20.234375 -54.03125 L 20.546875 -42.375 L 20.234375 -39.09375 L 20.453125 -37.078125 L 20.234375 -34.953125 L 20.234375 -30.71875 L 20.546875 -27.65625 L 20.125 -24.46875 L 20.234375 -22.359375 L 20.125 -20.125 L 20.453125 -13.671875 L 20.234375 -11.546875 Z M 20.34375 -3.28125 "/></g></g></g><g fill="#ffffff" fill-opacity="1"><g transform="translate(633.896358, 143.962324)"><g><path d="M 8.15625 -3.390625 L 8.90625 -1.0625 L 11.015625 0 L 13.03125 0.109375 L 17.375 -0.21875 L 19.59375 0 L 22.78125 0 L 26.0625 -1.0625 L 26.796875 -3.078125 L 27.015625 -5.296875 L 26.59375 -7.515625 L 26.90625 -12.078125 L 26.703125 -18.640625 L 27.65625 -20.765625 L 29.765625 -21.828125 L 31.671875 -21.828125 L 33.578125 -21.921875 L 36.234375 -21.078125 L 37.921875 -19.28125 L 40.6875 -15.578125 L 41.421875 -13.5625 L 44.390625 -8.265625 L 45.765625 -6.25 L 46.71875 -4.453125 L 47.984375 -2.75 L 50.109375 -0.84375 L 52.75 -0.21875 L 56.578125 0 L 58.90625 -0.21875 L 61.015625 0 L 65.25 0 L 67.59375 -0.21875 L 69.8125 -0.734375 L 70.234375 -2.96875 L 68.859375 -5.609375 L 65.46875 -10.8125 L 64.515625 -12.609375 L 63.25 -14.515625 L 62.1875 -16.421875 L 60.8125 -18.109375 L 57.625 -23.625 L 57.3125 -26.171875 L 58.484375 -28.390625 L 61.4375 -31.25 L 62.71875 -33.046875 L 63.453125 -35.0625 L 64.625 -36.96875 L 65.359375 -38.765625 L 66.53125 -42.796875 L 66.640625 -51.171875 L 66.109375 -53.1875 L 65.78125 -55.1875 L 65.25 -57.3125 L 62.390625 -63.140625 L 60.90625 -64.734375 L 59.953125 -66.3125 L 54.65625 -70.34375 L 50.953125 -72.25 L 42.15625 -74.046875 L 39.515625 -74.265625 L 36.4375 -74.15625 L 34.109375 -74.265625 L 32 -74.046875 L 29.65625 -74.265625 L 27.859375 -74.046875 L 21.5 -74.265625 L 19.5 -73.9375 L 15.15625 -74.375 L 13.140625 -74.046875 L 10.8125 -74.15625 L 8.796875 -73.203125 L 7.9375 -70.984375 L 7.625 -41.3125 L 7.9375 -38.25 L 7.9375 -32.953125 L 7.734375 -30.71875 L 7.625 -26.703125 L 7.9375 -24.359375 L 7.625 -20.015625 L 8.046875 -13.875 L 7.84375 -11.65625 Z M 29.765625 -38.984375 L 27.96875 -39.9375 L 26.90625 -42.15625 L 26.59375 -54.03125 L 27.859375 -56.140625 L 29.984375 -57.203125 L 31.671875 -57.3125 L 37.5 -57.203125 L 42.375 -56.578125 L 45.65625 -54.5625 L 46.71875 -52.96875 L 47.453125 -51.28125 L 47.671875 -48.203125 L 47.359375 -45.34375 L 46.5 -43.21875 L 45.34375 -41.421875 L 44.0625 -40.15625 L 42.484375 -39.40625 L 34.21875 -38.671875 L 32.09375 -38.984375 Z M 29.765625 -38.984375 "/></g></g></g></svg>
